<?xml version="1.0" encoding="utf-8" standalone="yes"?>
<!DOCTYPE svg PUBLIC "-//W3C//DTD SVG 1.1//EN" "http://www.w3.org/Graphics/SVG/1.1/DTD/svg11.dtd">
<svg width="943" height="312" viewBox="0 0 943 312" style="fill:none;stroke:none;fill-rule:evenodd;clip-rule:evenodd;stroke-linecap:round;stroke-linejoin:round;stroke-miterlimit:1.5;" version="1.1" xmlns="http://www.w3.org/2000/svg" xmlns:xlink="http://www.w3.org/1999/xlink"><style id="fontImports">@import url("https://fonts.googleapis.com/css2?family=Roboto:wght@400;700&amp;display=block");</style><g id="items" style="isolation: isolate"><g id="blend" style="mix-blend-mode:normal"><g id="g-root--1.line_sy_3d9x31rkqtjd-fill" data-item-order="999994539" data-item-id="-1.line_sy_3d9x31rkqtjd" data-item-class="Curve Stroke Part ColorFillBlack ColorStrokeGray" data-item-index="-1" data-renderer-id="0" transform="translate(846, 145.99609375)"></g><g id="g-root--1.vector_sy_1uontrr1rkqu4i-fill" data-item-order="999994541" data-item-id="-1.vector_sy_1uontrr1rkqu4i" data-item-class="Curve Stroke Part ColorFillBlack ColorStrokeGray" data-item-index="-1" data-renderer-id="0" transform="translate(3, 145.99609375)"></g><g id="g-root-9.cu-smallCircle_sy_1hdtshj1rkqsjv-fill" data-item-order="999994543" data-item-id="9.cu-smallCircle_sy_1hdtshj1rkqsjv" data-item-class="Part Indexed Stroke ColorStrokeGray" data-item-index="9" data-renderer-id="0" transform="translate(840, 143)"></g><g id="g-root-8.cu-smallCircle_sy_1hdtshj1rkqsju-fill" data-item-order="999994545" data-item-id="8.cu-smallCircle_sy_1hdtshj1rkqsju" data-item-class="Part Indexed Stroke ColorStrokeGray" data-item-index="8" data-renderer-id="0" transform="translate(744, 143)"></g><g id="g-root-7.cu-smallCircle_sy_1q8ubnb1rkquwx-fill" data-item-order="999994547" data-item-id="7.cu-smallCircle_sy_1q8ubnb1rkquwx" data-item-class="Part Indexed Stroke ColorStrokeGray" data-item-index="7" data-renderer-id="0" transform="translate(648, 143)"></g><g id="g-root-6.cu-smallCircle_sy_1q8ubnb1rkquww-fill" data-item-order="999994549" data-item-id="6.cu-smallCircle_sy_1q8ubnb1rkquww" data-item-class="Part Indexed Stroke ColorStrokeGray" data-item-index="6" data-renderer-id="0" transform="translate(552, 143)"></g><g id="g-root-5.cu-smallCircle_sy_1lt0tiv1rkquxb-fill" data-item-order="999994551" data-item-id="5.cu-smallCircle_sy_1lt0tiv1rkquxb" data-item-class="Part Indexed Stroke ColorStrokeGray" data-item-index="5" data-renderer-id="0" transform="translate(456, 143)"></g><g id="g-root-4.cu-smallCircle_sy_1lt0tiv1rkquxa-fill" data-item-order="999994553" data-item-id="4.cu-smallCircle_sy_1lt0tiv1rkquxa" data-item-class="Part Indexed Stroke ColorStrokeGray" data-item-index="4" data-renderer-id="0" transform="translate(360, 143)"></g><g id="g-root-3.cu-smallCircle_sy_1uontrr1rkqu4l-fill" data-item-order="999994555" data-item-id="3.cu-smallCircle_sy_1uontrr1rkqu4l" data-item-class="Part Indexed Stroke ColorStrokeGray" data-item-index="3" data-renderer-id="0" transform="translate(264, 143)"></g><g id="g-root-2.cu-smallCircle_sy_1uontrr1rkqu4k-fill" data-item-order="999994557" data-item-id="2.cu-smallCircle_sy_1uontrr1rkqu4k" data-item-class="Part Indexed Stroke ColorStrokeGray" data-item-index="2" data-renderer-id="0" transform="translate(168, 143)"></g><g id="g-root-1.cu-smallCircle_sy_1uontrr1rkqu4j-fill" data-item-order="999994559" data-item-id="1.cu-smallCircle_sy_1uontrr1rkqu4j" data-item-class="Part Indexed Indexed_1 Stroke ColorStrokeGray" data-item-index="1" data-renderer-id="0" transform="translate(72, 143)"></g><g id="g-root-desk_18f2et31rktmve-fill" data-item-order="1000000000" data-item-id="desk_18f2et31rktmve" data-item-class="Icon Stroke Indexed" data-item-index="9" data-renderer-id="0" transform="translate(819, 86)"></g><g id="g-root-tran_1hfp7qv1rktn2b-fill" data-item-order="1000000000" data-item-id="tran_1hfp7qv1rktn2b" data-item-class="Icon Stroke Indexed" data-item-index="7" data-renderer-id="0" transform="translate(627, 86)"></g><g id="g-root-exch_djtkzb1rktnno-fill" data-item-order="1000000000" data-item-id="exch_djtkzb1rktnno" data-item-class="Icon Stroke Indexed" data-item-index="5" data-renderer-id="0" transform="translate(435, 86)"></g><g id="g-root-1_18k27hz1rktnv0-fill" data-item-order="1000000000" data-item-id="1_18k27hz1rktnv0" data-item-class="Icon Stroke Indexed" data-item-index="3" data-renderer-id="0" transform="translate(243, 86)"></g><g id="g-root-temp_hsrv5j1rktmvi-fill" data-item-order="1000000000" data-item-id="temp_hsrv5j1rktmvi" data-item-class="Icon Stroke Indexed Indexed_1" data-item-index="1" data-renderer-id="0" transform="translate(51, 86)"></g><g id="g-root-tx_dht11sen_4j6s1j1rkqsr3-fill" data-item-order="1000000000" data-item-id="tx_dht11sen_4j6s1j1rkqsr3" data-item-class="Label Stroke Indexed Indexed_1 ColorStrokeGray" data-item-index="1" data-renderer-id="0" transform="translate(3, 26)"><g id="tx_dht11sen_4j6s1j1rkqsr3-fill" stroke="none" fill="#A3A3A3"><g><text style="font: 20px Roboto, sans-serif; white-space: pre;" font-weight="20px" font-size="Roboto," font-family="sans-serif"><tspan x="15.31" y="33.5" dominant-baseline="ideographic">DHT11 Sensor </tspan><tspan x="17.95" y="57.5" dominant-baseline="ideographic">Measurement</tspan></text></g></g></g><g id="g-root-tx_datavisu_18gbczb1rkqubr-fill" data-item-order="1000000000" data-item-id="tx_datavisu_18gbczb1rkqubr" data-item-class="Label Stroke Indexed ColorStrokeGray" data-item-index="9" data-renderer-id="0" transform="translate(765, 2)"><g id="tx_datavisu_18gbczb1rkqubr-fill" stroke="none" fill="#A3A3A3"><g><text style="font: 20px Roboto, sans-serif; white-space: pre;" font-weight="20px" font-size="Roboto," font-family="sans-serif"><tspan x="65.96" y="33.5" dominant-baseline="ideographic">Data </tspan><tspan x="16.84" y="57.5" dominant-baseline="ideographic">Visualization by </tspan><tspan x="51.35" y="81.5" dominant-baseline="ideographic">Grafana</tspan></text></g></g></g><g id="g-root-tx_dataproc_hu0tbr1rkqubt-fill" data-item-order="1000000000" data-item-id="tx_dataproc_hu0tbr1rkqubt" data-item-class="Label Stroke Indexed ColorStrokeGray" data-item-index="7" data-renderer-id="0" transform="translate(579, 2)"><g id="tx_dataproc_hu0tbr1rkqubt-fill" stroke="none" fill="#A3A3A3"><g><text style="font: 20px Roboto, sans-serif; white-space: pre;" font-weight="20px" font-size="Roboto," font-family="sans-serif"><tspan x="59.02" y="33.5" dominant-baseline="ideographic">Data </tspan><tspan x="17.26" y="57.5" dominant-baseline="ideographic">Processing by </tspan><tspan x="43.5" y="81.5" dominant-baseline="ideographic">Telegraf</tspan></text></g></g></g><g id="g-root-back_18k27hz1rktnv1-fill" data-item-order="1000000000" data-item-id="back_18k27hz1rktnv1" data-item-class="Icon Stroke Indexed" data-item-index="2" data-renderer-id="0" transform="translate(147, 158)"></g><g id="g-root-1_qoevef1rktm2t-fill" data-item-order="1000000000" data-item-id="1_qoevef1rktm2t" data-item-class="Icon Stroke Indexed" data-item-index="4" data-renderer-id="0" transform="translate(339, 158)"></g><g id="g-root-hori_qoevef1rktm2s-fill" data-item-order="1000000000" data-item-id="hori_qoevef1rktm2s" data-item-class="Icon Stroke Indexed" data-item-index="6" data-renderer-id="0" transform="translate(531, 158)"></g><g id="g-root-cloc_v48div1rktlaj-fill" data-item-order="1000000000" data-item-id="cloc_v48div1rktlaj" data-item-class="Icon Stroke Indexed" data-item-index="8" data-renderer-id="0" transform="translate(723, 158)"></g><g id="g-root-tx_datarece_hu0tbr1rkqubv-fill" data-item-order="1000000000" data-item-id="tx_datarece_hu0tbr1rkqubv" data-item-class="Label Stroke Indexed ColorStrokeGray" data-item-index="5" data-renderer-id="0" transform="translate(387, 2)"><g id="tx_datarece_hu0tbr1rkqubv-fill" stroke="none" fill="#A3A3A3"><g><text style="font: 20px Roboto, sans-serif; white-space: pre;" font-weight="20px" font-size="Roboto," font-family="sans-serif"><tspan x="12.9" y="33.5" dominant-baseline="ideographic">Data Reception </tspan><tspan x="40.43" y="57.5" dominant-baseline="ideographic">by MQTT </tspan><tspan x="51.73" y="81.5" dominant-baseline="ideographic">Broker</tspan></text></g></g></g><g id="g-root-tx_datatran_4j6s1j1rkqsr2-fill" data-item-order="1000000000" data-item-id="tx_datatran_4j6s1j1rkqsr2" data-item-class="Label Stroke Indexed ColorStrokeGray" data-item-index="2" data-renderer-id="0" transform="translate(105, 218)"><g id="tx_datatran_4j6s1j1rkqsr2-fill" stroke="none" fill="#A3A3A3"><g><text style="font: 20px Roboto, sans-serif; white-space: pre;" font-weight="20px" font-size="Roboto," font-family="sans-serif"><tspan x="52.82" y="33.5" dominant-baseline="ideographic">Data </tspan><tspan x="13.47" y="57.5" dominant-baseline="ideographic">Transmission </tspan><tspan x="33.02" y="81.5" dominant-baseline="ideographic">to ESP32</tspan></text></g></g></g><g id="g-root-tx_datatran_detsaf1rkqryc-fill" data-item-order="1000000000" data-item-id="tx_datatran_detsaf1rkqryc" data-item-class="Label Stroke Indexed ColorStrokeGray" data-item-index="4" data-renderer-id="0" transform="translate(297, 218)"><g id="tx_datatran_detsaf1rkqryc-fill" stroke="none" fill="#A3A3A3"><g><text style="font: 20px Roboto, sans-serif; white-space: pre;" font-weight="20px" font-size="Roboto," font-family="sans-serif"><tspan x="52.82" y="33.5" dominant-baseline="ideographic">Data </tspan><tspan x="13.47" y="57.5" dominant-baseline="ideographic">Transmission </tspan><tspan x="30.93" y="81.5" dominant-baseline="ideographic">via MQTT</tspan></text></g></g></g><g id="g-root-tx_dataforw_hu0tbr1rkqubu-fill" data-item-order="1000000000" data-item-id="tx_dataforw_hu0tbr1rkqubu" data-item-class="Label Stroke Indexed ColorStrokeGray" data-item-index="6" data-renderer-id="0" transform="translate(489, 218)"><g id="tx_dataforw_hu0tbr1rkqubu-fill" stroke="none" fill="#A3A3A3"><g><text style="font: 20px Roboto, sans-serif; white-space: pre;" font-weight="20px" font-size="Roboto," font-family="sans-serif"><tspan x="53.02" y="33.5" dominant-baseline="ideographic">Data </tspan><tspan x="12.34" y="57.5" dominant-baseline="ideographic">Forwarding to </tspan><tspan x="37.5" y="81.5" dominant-baseline="ideographic">Telegraf</tspan></text></g></g></g><g id="g-root-tx_datastor_qpntkn1rkqtj4-fill" data-item-order="1000000000" data-item-id="tx_datastor_qpntkn1rkqtj4" data-item-class="Label Stroke Indexed ColorStrokeGray" data-item-index="8" data-renderer-id="0" transform="translate(675, 218)"><g id="tx_datastor_qpntkn1rkqtj4-fill" stroke="none" fill="#A3A3A3"><g><text style="font: 20px Roboto, sans-serif; white-space: pre;" font-weight="20px" font-size="Roboto," font-family="sans-serif"><tspan x="12.78" y="33.5" dominant-baseline="ideographic">Data Storage in </tspan><tspan x="43.55" y="57.5" dominant-baseline="ideographic">InfluxDB</tspan></text></g></g></g><g id="g-root-tx_dataproc_detsaf1rkqryd-fill" data-item-order="1000000000" data-item-id="tx_dataproc_detsaf1rkqryd" data-item-class="Label Stroke Indexed ColorStrokeGray" data-item-index="3" data-renderer-id="0" transform="translate(195, 2)"><g id="tx_dataproc_detsaf1rkqryd-fill" stroke="none" fill="#A3A3A3"><g><text style="font: 20px Roboto, sans-serif; white-space: pre;" font-weight="20px" font-size="Roboto," font-family="sans-serif"><tspan x="59.93" y="33.5" dominant-baseline="ideographic">Data </tspan><tspan x="11.86" y="57.5" dominant-baseline="ideographic">Processing and </tspan><tspan x="31.83" y="81.5" dominant-baseline="ideographic">Formatting</tspan></text></g></g></g><g id="g-root--1.line_sy_3d9x31rkqtjd-stroke" data-item-order="999994539" data-item-id="-1.line_sy_3d9x31rkqtjd" data-item-class="Curve Stroke Part ColorFillBlack ColorStrokeGray" data-item-index="-1" data-renderer-id="0" transform="translate(846, 145.99609375)"><g id="-1.line_sy_3d9x31rkqtjd-stroke" fill="none" stroke-linecap="round" stroke-linejoin="round" stroke-miterlimit="4" stroke="#A3A3A3" stroke-width="2"><g><path d="M 76 10.003906L 10 10.003906"></path><path d="M 70 16.503906L 76.5 10.003906L 70 3.503906" stroke-dasharray="none"></path></g></g></g><g id="g-root--1.vector_sy_1uontrr1rkqu4i-stroke" data-item-order="999994541" data-item-id="-1.vector_sy_1uontrr1rkqu4i" data-item-class="Curve Stroke Part ColorFillBlack ColorStrokeGray" data-item-index="-1" data-renderer-id="0" transform="translate(3, 145.99609375)"><g id="-1.vector_sy_1uontrr1rkqu4i-stroke" fill="none" stroke-linecap="round" stroke-linejoin="round" stroke-miterlimit="4" stroke="#A3A3A3" stroke-width="2"><g><path d="M 847 10L 757 10M 751 10L 661 10M 655 10L 565 10M 559 10L 469 10M 463 10L 373 10M 367 10L 277 10M 271 10L 181 10M 174.9976 10L 84.9976 10M 78.9976 10L 10 10"></path></g></g></g><g id="g-root-9.cu-smallCircle_sy_1hdtshj1rkqsjv-stroke" data-item-order="999994543" data-item-id="9.cu-smallCircle_sy_1hdtshj1rkqsjv" data-item-class="Part Indexed Stroke ColorStrokeGray" data-item-index="9" data-renderer-id="0" transform="translate(840, 143)"><g id="9.cu-smallCircle_sy_1hdtshj1rkqsjv-stroke" fill="none" stroke-linecap="round" stroke-linejoin="round" stroke-miterlimit="4" stroke="#A3A3A3" stroke-width="2"><g><path d="M 16 13C 16 14.6569 14.6569 16 13 16C 11.3431 16 10 14.6569 10 13C 10 11.3431 11.3431 10 13 10C 14.6569 10 16 11.3431 16 13Z"></path></g></g></g><g id="g-root-8.cu-smallCircle_sy_1hdtshj1rkqsju-stroke" data-item-order="999994545" data-item-id="8.cu-smallCircle_sy_1hdtshj1rkqsju" data-item-class="Part Indexed Stroke ColorStrokeGray" data-item-index="8" data-renderer-id="0" transform="translate(744, 143)"><g id="8.cu-smallCircle_sy_1hdtshj1rkqsju-stroke" fill="none" stroke-linecap="round" stroke-linejoin="round" stroke-miterlimit="4" stroke="#A3A3A3" stroke-width="2"><g><path d="M 16 13C 16 14.6569 14.6569 16 13 16C 11.3431 16 10 14.6569 10 13C 10 11.3431 11.3431 10 13 10C 14.6569 10 16 11.3431 16 13Z"></path></g></g></g><g id="g-root-7.cu-smallCircle_sy_1q8ubnb1rkquwx-stroke" data-item-order="999994547" data-item-id="7.cu-smallCircle_sy_1q8ubnb1rkquwx" data-item-class="Part Indexed Stroke ColorStrokeGray" data-item-index="7" data-renderer-id="0" transform="translate(648, 143)"><g id="7.cu-smallCircle_sy_1q8ubnb1rkquwx-stroke" fill="none" stroke-linecap="round" stroke-linejoin="round" stroke-miterlimit="4" stroke="#A3A3A3" stroke-width="2"><g><path d="M 16 13C 16 14.6569 14.6569 16 13 16C 11.3431 16 10 14.6569 10 13C 10 11.3431 11.3431 10 13 10C 14.6569 10 16 11.3431 16 13Z"></path></g></g></g><g id="g-root-6.cu-smallCircle_sy_1q8ubnb1rkquww-stroke" data-item-order="999994549" data-item-id="6.cu-smallCircle_sy_1q8ubnb1rkquww" data-item-class="Part Indexed Stroke ColorStrokeGray" data-item-index="6" data-renderer-id="0" transform="translate(552, 143)"><g id="6.cu-smallCircle_sy_1q8ubnb1rkquww-stroke" fill="none" stroke-linecap="round" stroke-linejoin="round" stroke-miterlimit="4" stroke="#A3A3A3" stroke-width="2"><g><path d="M 16 13C 16 14.6569 14.6569 16 13 16C 11.3431 16 10 14.6569 10 13C 10 11.3431 11.3431 10 13 10C 14.6569 10 16 11.3431 16 13Z"></path></g></g></g><g id="g-root-5.cu-smallCircle_sy_1lt0tiv1rkquxb-stroke" data-item-order="999994551" data-item-id="5.cu-smallCircle_sy_1lt0tiv1rkquxb" data-item-class="Part Indexed Stroke ColorStrokeGray" data-item-index="5" data-renderer-id="0" transform="translate(456, 143)"><g id="5.cu-smallCircle_sy_1lt0tiv1rkquxb-stroke" fill="none" stroke-linecap="round" stroke-linejoin="round" stroke-miterlimit="4" stroke="#A3A3A3" stroke-width="2"><g><path d="M 16 13C 16 14.6569 14.6569 16 13 16C 11.3431 16 10 14.6569 10 13C 10 11.3431 11.3431 10 13 10C 14.6569 10 16 11.3431 16 13Z"></path></g></g></g><g id="g-root-4.cu-smallCircle_sy_1lt0tiv1rkquxa-stroke" data-item-order="999994553" data-item-id="4.cu-smallCircle_sy_1lt0tiv1rkquxa" data-item-class="Part Indexed Stroke ColorStrokeGray" data-item-index="4" data-renderer-id="0" transform="translate(360, 143)"><g id="4.cu-smallCircle_sy_1lt0tiv1rkquxa-stroke" fill="none" stroke-linecap="round" stroke-linejoin="round" stroke-miterlimit="4" stroke="#A3A3A3" stroke-width="2"><g><path d="M 16 13C 16 14.6569 14.6569 16 13 16C 11.3431 16 10 14.6569 10 13C 10 11.3431 11.3431 10 13 10C 14.6569 10 16 11.3431 16 13Z"></path></g></g></g><g id="g-root-3.cu-smallCircle_sy_1uontrr1rkqu4l-stroke" data-item-order="999994555" data-item-id="3.cu-smallCircle_sy_1uontrr1rkqu4l" data-item-class="Part Indexed Stroke ColorStrokeGray" data-item-index="3" data-renderer-id="0" transform="translate(264, 143)"><g id="3.cu-smallCircle_sy_1uontrr1rkqu4l-stroke" fill="none" stroke-linecap="round" stroke-linejoin="round" stroke-miterlimit="4" stroke="#A3A3A3" stroke-width="2"><g><path d="M 16 13C 16 14.6569 14.6569 16 13 16C 11.3431 16 10 14.6569 10 13C 10 11.3431 11.3431 10 13 10C 14.6569 10 16 11.3431 16 13Z"></path></g></g></g><g id="g-root-2.cu-smallCircle_sy_1uontrr1rkqu4k-stroke" data-item-order="999994557" data-item-id="2.cu-smallCircle_sy_1uontrr1rkqu4k" data-item-class="Part Indexed Stroke ColorStrokeGray" data-item-index="2" data-renderer-id="0" transform="translate(168, 143)"><g id="2.cu-smallCircle_sy_1uontrr1rkqu4k-stroke" fill="none" stroke-linecap="round" stroke-linejoin="round" stroke-miterlimit="4" stroke="#A3A3A3" stroke-width="2"><g><path d="M 16 13C 16 14.6569 14.6569 16 13 16C 11.3431 16 10 14.6569 10 13C 10 11.3431 11.3431 10 13 10C 14.6569 10 16 11.3431 16 13Z"></path></g></g></g><g id="g-root-1.cu-smallCircle_sy_1uontrr1rkqu4j-stroke" data-item-order="999994559" data-item-id="1.cu-smallCircle_sy_1uontrr1rkqu4j" data-item-class="Part Indexed Indexed_1 Stroke ColorStrokeGray" data-item-index="1" data-renderer-id="0" transform="translate(72, 143)"><g id="1.cu-smallCircle_sy_1uontrr1rkqu4j-stroke" fill="none" stroke-linecap="round" stroke-linejoin="round" stroke-miterlimit="4" stroke="#A3A3A3" stroke-width="2"><g><path d="M 16 13C 16 14.6569 14.6569 16 13 16C 11.3431 16 10 14.6569 10 13C 10 11.3431 11.3431 10 13 10C 14.6569 10 16 11.3431 16 13Z"></path></g></g></g><g id="g-root-desk_18f2et31rktmve-stroke" data-item-order="1000000000" data-item-id="desk_18f2et31rktmve" data-item-class="Icon Stroke Indexed" data-item-index="9" data-renderer-id="0" transform="translate(819, 86)"><g id="desk_18f2et31rktmve-stroke" fill="none" stroke-linecap="round" stroke-linejoin="round" stroke-miterlimit="4" stroke="#CD6AFB" stroke-width="2"><g><path d="M 17 27C 17 30.865993 20.134007 34 24 34C 27.865993 34 31 30.865993 31 27C 31 23.134007 27.865993 20 24 20C 20.134007 20 17 23.134007 17 27M 24 20L 24 27L 31 27M 28 55C 29.811644 52.712475 30.860811 49.914696 31 47M 40 55C 38.188354 52.712475 37.139191 49.914696 37 47M 24.998001 55L 42.998001 55M 11 41L 57 41M 13 13L 55 13C 55 13 57 13 57 15L 57 45C 57 45 57 47 55 47L 13 47C 13 47 11 47 11 45L 11 15C 11 15 11 13 13 13M 37 24L 40 20L 46 25L 51 19M 49 35L 49 32M 45 35L 45 31M 41 35L 41 29M 37 35L 37 32"></path></g></g></g><g id="g-root-tran_1hfp7qv1rktn2b-stroke" data-item-order="1000000000" data-item-id="tran_1hfp7qv1rktn2b" data-item-class="Icon Stroke Indexed" data-item-index="7" data-renderer-id="0" transform="translate(627, 86)"><g id="tran_1hfp7qv1rktn2b-stroke" fill="none" stroke-linecap="round" stroke-linejoin="round" stroke-miterlimit="4" stroke="#FD6A65" stroke-width="2"><g><path d="M 21 29L 12.846 29C 11.784322 28.956684 10.958291 28.061743 11 27L 11 13C 10.959408 11.938669 11.784822 11.044396 12.846001 11L 33.153999 11C 34.215179 11.044396 35.040592 11.938669 35 13L 35 25M 15 33L 21 33M 11 25L 35 25M 41 53L 41 56.938M 33 57L 49 57M 57 49.400002C 57.104771 51.275791 55.675137 52.884129 53.799999 53L 28.200001 53C 26.325378 52.883064 24.896343 51.275402 25 49.399998L 25 32.599998C 24.897457 30.724987 26.325895 29.117992 28.199999 29L 53.799999 29C 55.674618 29.116932 57.103653 30.724598 56.999996 32.599998ZM 24.998001 47L 57 47"></path></g></g></g><g id="g-root-exch_djtkzb1rktnno-stroke" data-item-order="1000000000" data-item-id="exch_djtkzb1rktnno" data-item-class="Icon Stroke Indexed" data-item-index="5" data-renderer-id="0" transform="translate(435, 86)"><g id="exch_djtkzb1rktnno-stroke" fill="none" stroke-linecap="round" stroke-linejoin="round" stroke-miterlimit="4" stroke="#FFE60A" stroke-width="2"><g><path d="M 19 26L 19 21.5C 18.999468 19.509674 19.790298 17.6008 21.198235 16.193989C 22.606171 14.787179 24.515675 13.997876 26.506001 14L 30 14M 23.006001 22L 19.006001 26L 15.006001 22M 27.006001 11L 30.006001 14L 27.006001 17M 20 50.5C 19.723858 50.5 19.5 50.723858 19.5 51C 19.5 51.276142 19.723858 51.5 20 51.5C 20.276142 51.5 20.5 51.276142 20.5 51C 20.5 50.723858 20.276142 50.5 20 50.5L 20 50.5M 29 55C 29 56.104568 28.10457 57 27 57L 13 57C 11.895431 57 11 56.104568 11 55L 11 33C 11 31.89543 11.895431 31 13 31L 27 31C 28.10457 31 29 31.89543 29 33ZM 57 15C 57 17.209139 55.209141 19 53 19L 43 19C 40.790863 19 39 17.209139 39 15C 39 12.790861 40.790863 11 43 11L 53 11C 55.209141 11 57 12.790861 57 15ZM 44.5 14.5C 44.223858 14.5 44 14.723858 44 15C 44 15.276142 44.223858 15.5 44.5 15.5C 44.776142 15.5 45 15.276142 45 15C 45 14.723858 44.776142 14.5 44.5 14.5L 44.5 14.5M 57 23C 57 25.209139 55.209141 27 53 27L 43 27C 40.790863 27 39 25.209139 39 23C 39 20.790861 40.790863 19 43 19L 53 19C 55.209141 19 57 20.790861 57 23ZM 44.5 22.5C 44.223858 22.5 44 22.723858 44 23C 44 23.276142 44.223858 23.5 44.5 23.5C 44.776142 23.5 45 23.276142 45 23C 45 22.723858 44.776142 22.5 44.5 22.5L 44.5 22.5M 57 31C 57 33.209137 55.209141 35 53 35L 43 35C 40.790863 35 39 33.209137 39 31C 39 28.790861 40.790863 27 43 27L 53 27C 55.209141 27 57 28.790861 57 31ZM 44.5 30.5C 44.223858 30.5 44 30.723858 44 31C 44 31.276142 44.223858 31.5 44.5 31.5C 44.776142 31.5 45 31.276142 45 31C 45 30.723858 44.776142 30.5 44.5 30.5L 44.5 30.5"></path></g></g></g><g id="g-root-1_18k27hz1rktnv0-stroke" data-item-order="1000000000" data-item-id="1_18k27hz1rktnv0" data-item-class="Icon Stroke Indexed" data-item-index="3" data-renderer-id="0" transform="translate(243, 86)"><g id="1_18k27hz1rktnv0-stroke" fill="none" stroke-linecap="round" stroke-linejoin="round" stroke-miterlimit="4" stroke="#44E095" stroke-width="2"><g><path d="M 35 54C 35 55.656857 33.656853 57 32 57L 14 57C 12.343145 57 11 55.656857 11 54L 11 30C 11 28.343145 12.343145 27 14 27L 25.757999 27C 26.553095 27.00017 27.315603 27.315964 27.878 27.878L 34.122002 34.122002C 34.684036 34.684395 34.999832 35.446907 35 36.242001ZM 17 34L 24 34M 17 40.5L 29 40.5M 17 47L 29 47M 39 18L 46 18M 39 24.5L 51 24.5M 39 31L 51 31M 41 41L 54 41C 55.656857 41 57 39.656853 57 38L 57 20.242001C 56.999832 19.446907 56.684036 18.684397 56.122002 18.122002L 49.877998 11.878C 49.315605 11.315964 48.553097 11.00017 47.757999 11L 36 11C 34.343147 11 33 12.343145 33 14L 33 25M 21 12L 24 15L 21 18M 24 15L 18 15C 16.343145 15 15 16.343145 15 18L 15 22M 45 56L 42 53L 45 50M 42 53L 48 53C 49.656857 53 51 51.656857 51 50L 51 46"></path></g></g></g><g id="g-root-temp_hsrv5j1rktmvi-stroke" data-item-order="1000000000" data-item-id="temp_hsrv5j1rktmvi" data-item-class="Icon Stroke Indexed Indexed_1" data-item-index="1" data-renderer-id="0" transform="translate(51, 86)"><g id="temp_hsrv5j1rktmvi-stroke" fill="none" stroke-linecap="round" stroke-linejoin="round" stroke-miterlimit="4" stroke="#4F92FF" stroke-width="2"><g><path d="M 39.142857 40.857143L 39.142857 16.857143C 39.142857 14.016822 36.840321 11.714286 34 11.714286L 34 11.714286C 31.159679 11.714286 28.857143 14.016822 28.857143 16.857143L 28.857143 40.857143C 25.905621 43.070786 24.701738 46.924736 25.868431 50.424809C 27.035122 53.924889 30.310596 56.285713 34 56.285713C 37.689407 56.285713 40.964882 53.924889 42.131569 50.424809C 43.298264 46.924736 42.094379 43.070786 39.142857 40.857143Z"></path></g></g></g><g id="g-root-tx_dht11sen_4j6s1j1rkqsr3-stroke" data-item-order="1000000000" data-item-id="tx_dht11sen_4j6s1j1rkqsr3" data-item-class="Label Stroke Indexed Indexed_1 ColorStrokeGray" data-item-index="1" data-renderer-id="0" transform="translate(3, 26)"></g><g id="g-root-tx_datavisu_18gbczb1rkqubr-stroke" data-item-order="1000000000" data-item-id="tx_datavisu_18gbczb1rkqubr" data-item-class="Label Stroke Indexed ColorStrokeGray" data-item-index="9" data-renderer-id="0" transform="translate(765, 2)"></g><g id="g-root-tx_dataproc_hu0tbr1rkqubt-stroke" data-item-order="1000000000" data-item-id="tx_dataproc_hu0tbr1rkqubt" data-item-class="Label Stroke Indexed ColorStrokeGray" data-item-index="7" data-renderer-id="0" transform="translate(579, 2)"></g><g id="g-root-back_18k27hz1rktnv1-stroke" data-item-order="1000000000" data-item-id="back_18k27hz1rktnv1" data-item-class="Icon Stroke Indexed" data-item-index="2" data-renderer-id="0" transform="translate(147, 158)"><g id="back_18k27hz1rktnv1-stroke" fill="none" stroke-linecap="round" stroke-linejoin="round" stroke-miterlimit="4" stroke="#1AC6FF" stroke-width="2"><g><path d="M 42 12L 48 18L 42 24M 48 18L 11 18M 42 44L 48 50L 42 56M 48 50L 11 50M 26 28L 20 34L 26 40M 20 34L 57 34"></path></g></g></g><g id="g-root-1_qoevef1rktm2t-stroke" data-item-order="1000000000" data-item-id="1_qoevef1rktm2t" data-item-class="Icon Stroke Indexed" data-item-index="4" data-renderer-id="0" transform="translate(339, 158)"><g id="1_qoevef1rktm2t-stroke" fill="none" stroke-linecap="round" stroke-linejoin="round" stroke-miterlimit="4" stroke="#A8DD38" stroke-width="2"><g><path d="M 12 21.4L 37.334 44.689999C 37.534889 44.875099 37.651314 45.134319 37.656227 45.40744C 37.661133 45.680557 37.554108 45.943798 37.360001 46.136002L 27.704 55.709999C 27.417343 55.994156 26.987965 56.078117 26.615385 55.922878C 26.242805 55.767635 26.00008 55.403629 26 55L 26 13.8C 26.00008 13.396372 26.242805 13.032365 26.615385 12.877123C 26.987965 12.721882 27.417343 12.805845 27.704 13.09L 37.360001 22.661999C 37.553848 22.854471 37.660522 23.117867 37.655235 23.390987C 37.649948 23.664108 37.533157 23.923178 37.332001 24.108L 11.948 47.400002M 49.262001 18.372C 58.244785 27.354183 58.244785 41.917816 49.262001 50.900002M 43.599998 24.028C 49.458397 29.885956 49.458397 39.384048 43.600002 45.242001M 37.947998 29.686001C 40.682007 32.419731 40.682007 36.852272 37.948002 39.585999"></path></g></g></g><g id="g-root-hori_qoevef1rktm2s-stroke" data-item-order="1000000000" data-item-id="hori_qoevef1rktm2s" data-item-class="Icon Stroke Indexed" data-item-index="6" data-renderer-id="0" transform="translate(531, 158)"><g id="hori_qoevef1rktm2s-stroke" fill="none" stroke-linecap="round" stroke-linejoin="round" stroke-miterlimit="4" stroke="#F99539" stroke-width="2"><g><path d="M 11 29L 39 29M 29 39L 57 39M 19 37L 11 29L 19 21M 49 47L 57 39L 49 31"></path></g></g></g><g id="g-root-cloc_v48div1rktlaj-stroke" data-item-order="1000000000" data-item-id="cloc_v48div1rktlaj" data-item-class="Icon Stroke Indexed" data-item-index="8" data-renderer-id="0" transform="translate(723, 158)"><g id="cloc_v48div1rktlaj-stroke" fill="none" stroke-linecap="round" stroke-linejoin="round" stroke-miterlimit="4" stroke="#F669BE" stroke-width="2"><g><path d="M 11.084 19.001999C 11.084 23.420277 19.59059 27.002001 30.084 27.002001C 40.577408 27.002001 49.084 23.420277 49.084 19.001999C 49.084 14.583722 40.577408 11.002 30.084 11.002C 19.59059 11.002 11.084 14.583722 11.084 19.001999ZM 30.084 35C 19.591999 35 11.084 31.42 11.084 27M 27.084 43.900002C 18.018 43.299999 11.084 39.989998 11.084 36.001999M 28.084 52.959999C 18.532 52.537998 11.084 49.136002 11.084 45.001999L 11.084 19M 49.084 19.001999L 49.084 28.002001M 33.073997 45.001999C 33.074001 51.629417 38.446587 57.002003 45.074001 57.002003C 51.70142 57.002003 57.074001 51.629417 57.074001 45.002003C 57.074001 38.374584 51.70142 33.001999 45.074001 33.001999C 38.446587 33.001999 33.074001 38.374584 33.074001 45.002003ZM 49.074001 45.001999L 45.074001 45.001999L 45.074001 39.001999"></path></g></g></g><g id="g-root-tx_datarece_hu0tbr1rkqubv-stroke" data-item-order="1000000000" data-item-id="tx_datarece_hu0tbr1rkqubv" data-item-class="Label Stroke Indexed ColorStrokeGray" data-item-index="5" data-renderer-id="0" transform="translate(387, 2)"></g><g id="g-root-tx_datatran_4j6s1j1rkqsr2-stroke" data-item-order="1000000000" data-item-id="tx_datatran_4j6s1j1rkqsr2" data-item-class="Label Stroke Indexed ColorStrokeGray" data-item-index="2" data-renderer-id="0" transform="translate(105, 218)"></g><g id="g-root-tx_datatran_detsaf1rkqryc-stroke" data-item-order="1000000000" data-item-id="tx_datatran_detsaf1rkqryc" data-item-class="Label Stroke Indexed ColorStrokeGray" data-item-index="4" data-renderer-id="0" transform="translate(297, 218)"></g><g id="g-root-tx_dataforw_hu0tbr1rkqubu-stroke" data-item-order="1000000000" data-item-id="tx_dataforw_hu0tbr1rkqubu" data-item-class="Label Stroke Indexed ColorStrokeGray" data-item-index="6" data-renderer-id="0" transform="translate(489, 218)"></g><g id="g-root-tx_datastor_qpntkn1rkqtj4-stroke" data-item-order="1000000000" data-item-id="tx_datastor_qpntkn1rkqtj4" data-item-class="Label Stroke Indexed ColorStrokeGray" data-item-index="8" data-renderer-id="0" transform="translate(675, 218)"></g><g id="g-root-tx_dataproc_detsaf1rkqryd-stroke" data-item-order="1000000000" data-item-id="tx_dataproc_detsaf1rkqryd" data-item-class="Label Stroke Indexed ColorStrokeGray" data-item-index="3" data-renderer-id="0" transform="translate(195, 2)"></g></g></g></svg>