<?xml version="1.0" encoding="utf-8" standalone="yes"?>
<!DOCTYPE svg PUBLIC "-//W3C//DTD SVG 1.1//EN" "http://www.w3.org/Graphics/SVG/1.1/DTD/svg11.dtd">
<svg width="792" height="456" viewBox="0 0 792 456" style="fill:none;stroke:none;fill-rule:evenodd;clip-rule:evenodd;stroke-linecap:round;stroke-linejoin:round;stroke-miterlimit:1.5;" version="1.1" xmlns="http://www.w3.org/2000/svg" xmlns:xlink="http://www.w3.org/1999/xlink"><style id="fontImports">@import url("https://fonts.googleapis.com/css2?family=Roboto:wght@400;700&amp;display=block");</style><g id="items" style="isolation: isolate"><g id="blend" style="mix-blend-mode:normal"><g id="g-root-0.cu_sy_v3lwq77t4ob3-fill" data-item-order="999849257" data-item-id="0.cu_sy_v3lwq77t4ob3" data-item-class="Part Indexed_0 Fill Stroke ColorFillBlack ColorStrokeBlack" data-item-index="0" data-renderer-id="0" transform="translate(265.00885009765625, 122)"></g><g id="g-root-6.cu_sy_dcydbj7t4nil-fill" data-item-order="999849259" data-item-id="6.cu_sy_dcydbj7t4nil" data-item-class="Part Indexed Fill Stroke" data-item-index="6" data-renderer-id="0" transform="translate(248.74502563476562, 53.74560546875)"></g><g id="g-root-5.cu_sy_dcydbj7t4nik-fill" data-item-order="999849261" data-item-id="5.cu_sy_dcydbj7t4nik" data-item-class="Part Indexed Fill Stroke" data-item-index="5" data-renderer-id="0" transform="translate(180, 194)"></g><g id="g-root-4.cu_sy_m8ldkf7t4mpv-fill" data-item-order="999849263" data-item-id="4.cu_sy_m8ldkf7t4mpv" data-item-class="Part Indexed Fill Stroke" data-item-index="4" data-renderer-id="0" transform="translate(248.74502563476562, 317)"></g><g id="g-root-3.cu_sy_m8ldkf7t4mpu-fill" data-item-order="999849265" data-item-id="3.cu_sy_m8ldkf7t4mpu" data-item-class="Part Indexed Fill Stroke" data-item-index="3" data-renderer-id="0" transform="translate(407.966552734375, 317)"></g><g id="g-root-2.cu_sy_qoevov7t4lxl-fill" data-item-order="999849267" data-item-id="2.cu_sy_qoevov7t4lxl" data-item-class="Part Indexed Fill Stroke" data-item-index="2" data-renderer-id="0" transform="translate(464.11767578125, 194)"></g><g id="g-root-1.cu_sy_qoevov7t4lxk-fill" data-item-order="999849269" data-item-id="1.cu_sy_qoevov7t4lxk" data-item-class="Part Indexed Indexed_1 Fill Stroke" data-item-index="1" data-renderer-id="0" transform="translate(407.9666748046875, 53.74560546875)"></g><g id="g-root-cels_58pgv7t62v5-fill" data-item-order="1000000000" data-item-id="cels_58pgv7t62v5" data-item-class="Icon Stroke Indexed Indexed_1 InsideFill InsideColorFill" data-item-index="1" data-renderer-id="0" transform="translate(434, 86)"></g><g id="g-root-none_4l27lb7t622v-fill" data-item-order="1000000000" data-item-id="none_4l27lb7t622v" data-item-class="Icon Stroke Indexed InsideFill InsideColorFill" data-item-index="6" data-renderer-id="0" transform="translate(278, 86)"></g><g id="g-root-tx_lightsen_13z8wz37t4nib-fill" data-item-order="1000000000" data-item-id="tx_lightsen_13z8wz37t4nib" data-item-class="Label Stroke Indexed" data-item-index="5" data-renderer-id="0" transform="translate(26, 194)"><g id="tx_lightsen_13z8wz37t4nib-fill" stroke="none" fill="#FFE60A"><g><text style="font: bold 20px Roboto, sans-serif; white-space: pre;" font-weight="bold" font-size="20" font-family="Roboto, sans-serif"><tspan x="16.04" y="33.5" dominant-baseline="ideographic">Light Sensors</tspan></text></g></g></g><g id="g-root-tx_measures_1hapfcf7t4lxc-fill" data-item-order="1000000000" data-item-id="tx_measures_1hapfcf7t4lxc" data-item-class="Label Stroke Indexed Indexed_1 ColorFillGray ColorStrokeGray" data-item-index="1" data-renderer-id="0" transform="translate(524, 62)"><g id="tx_measures_1hapfcf7t4lxc-fill" stroke="none" fill="#A3A3A3"><g><text style="font: 15px Roboto, sans-serif; white-space: pre;" font-weight="15px" font-size="Roboto," font-family="sans-serif"><tspan x="12" y="30.5" dominant-baseline="ideographic">Measures ambient </tspan><tspan x="12" y="48.5" dominant-baseline="ideographic">temperature for climate </tspan><tspan x="12" y="66.5" dominant-baseline="ideographic">control</tspan></text></g></g></g><g id="g-root-natu_dhy60f7t7hn1-fill" data-item-order="1000000000" data-item-id="natu_dhy60f7t7hn1" data-item-class="Icon Stroke InsideFill ColorStrokeBlack" data-item-index="none" data-renderer-id="0" transform="translate(332, 194)"></g><g id="g-root-tx_humidity_18f2f3j7t4mq1-fill" data-item-order="1000000000" data-item-id="tx_humidity_18f2f3j7t4mq1" data-item-class="Label Stroke Indexed" data-item-index="2" data-renderer-id="0" transform="translate(602, 194)"><g id="tx_humidity_18f2f3j7t4mq1-fill" stroke="none" fill="#1AC6FF"><g><text style="font: bold 20px Roboto, sans-serif; white-space: pre;" font-weight="bold" font-size="20" font-family="Roboto, sans-serif"><tspan x="12" y="33.5" dominant-baseline="ideographic">Humidity Sensors</tspan></text></g></g></g><g id="g-root-tx_adjustsl_1lpwgdr7t4oas-fill" data-item-order="1000000000" data-item-id="tx_adjustsl_1lpwgdr7t4oas" data-item-class="Label Stroke Indexed ColorFillGray ColorStrokeGray" data-item-index="5" data-renderer-id="0" transform="translate(2, 230)"><g id="tx_adjustsl_1lpwgdr7t4oas-fill" stroke="none" fill="#A3A3A3"><g><text style="font: 15px Roboto, sans-serif; white-space: pre;" font-weight="15px" font-size="Roboto," font-family="sans-serif"><tspan x="16.2" y="27.5" dominant-baseline="ideographic">Adjusts lighting based </tspan><tspan x="23" y="45.5" dominant-baseline="ideographic">on natural light levels</tspan></text></g></g></g><g id="g-root-bulb_1hdtsrz7t7h1i-fill" data-item-order="1000000000" data-item-id="bulb_1hdtsrz7t7h1i" data-item-class="Icon Stroke Indexed InsideFill InsideColorFill" data-item-index="5" data-renderer-id="0" transform="translate(200, 218)"></g><g id="g-root-high_58pgv7t62v4-fill" data-item-order="1000000000" data-item-id="high_58pgv7t62v4" data-item-class="Icon Stroke Indexed InsideFill InsideColorFill" data-item-index="2" data-renderer-id="0" transform="translate(507, 218)"></g><g id="g-root-tx_tracksmo_1cuvx7z7t4lxr-fill" data-item-order="1000000000" data-item-id="tx_tracksmo_1cuvx7z7t4lxr" data-item-class="Label Stroke Indexed ColorFillGray ColorStrokeGray" data-item-index="2" data-renderer-id="0" transform="translate(602, 230)"><g id="tx_tracksmo_1cuvx7z7t4lxr-fill" stroke="none" fill="#A3A3A3"><g><text style="font: 15px Roboto, sans-serif; white-space: pre;" font-weight="15px" font-size="Roboto," font-family="sans-serif"><tspan x="12" y="27.5" dominant-baseline="ideographic">Tracks moisture levels </tspan><tspan x="12" y="45.5" dominant-baseline="ideographic">for comfort and health</tspan></text></g></g></g><g id="g-root-tx_detectsp_1cuvx7z7t4lxq-fill" data-item-order="1000000000" data-item-id="tx_detectsp_1cuvx7z7t4lxq" data-item-class="Label Stroke Indexed ColorFillGray ColorStrokeGray" data-item-index="3" data-renderer-id="0" transform="translate(524, 398)"><g id="tx_detectsp_1cuvx7z7t4lxq-fill" stroke="none" fill="#A3A3A3"><g><text style="font: 15px Roboto, sans-serif; white-space: pre;" font-weight="15px" font-size="Roboto," font-family="sans-serif"><tspan x="12" y="27.5" dominant-baseline="ideographic">Detects pollutants for </tspan><tspan x="12" y="45.5" dominant-baseline="ideographic">indoor air safety</tspan></text></g></g></g><g id="g-root-tx_temperat_v3lwq77t4ob2-fill" data-item-order="1000000000" data-item-id="tx_temperat_v3lwq77t4ob2" data-item-class="Label Stroke Indexed Indexed_1" data-item-index="1" data-renderer-id="0" transform="translate(524, 2)"><g id="tx_temperat_v3lwq77t4ob2-fill" stroke="none" fill="#FD6A65"><g><text style="font: bold 20px Roboto, sans-serif; white-space: pre;" font-weight="bold" font-size="20" font-family="Roboto, sans-serif"><tspan x="12" y="33.5" dominant-baseline="ideographic">Temperature </tspan><tspan x="12" y="57.5" dominant-baseline="ideographic">Sensors</tspan></text></g></g></g><g id="g-root-circ_1upab5b7t7fgk-fill" data-item-order="1000000000" data-item-id="circ_1upab5b7t7fgk" data-item-class="Icon Stroke Indexed InsideFill InsideColorFill" data-item-index="4" data-renderer-id="0" transform="translate(278, 350)"></g><g id="g-root-glas_1ltnawf7t7g99-fill" data-item-order="1000000000" data-item-id="glas_1ltnawf7t7g99" data-item-class="Icon Stroke Indexed InsideFill InsideColorFill" data-item-index="3" data-renderer-id="0" transform="translate(434, 350)"></g><g id="g-root-tx_airquali_13z8wz37t4nid-fill" data-item-order="1000000000" data-item-id="tx_airquali_13z8wz37t4nid" data-item-class="Label Stroke Indexed" data-item-index="3" data-renderer-id="0" transform="translate(524, 338)"><g id="tx_airquali_13z8wz37t4nid-fill" stroke="none" fill="#44E095"><g><text style="font: bold 20px Roboto, sans-serif; white-space: pre;" font-weight="bold" font-size="20" font-family="Roboto, sans-serif"><tspan x="12" y="33.5" dominant-baseline="ideographic">Air Quality </tspan><tspan x="12" y="57.5" dominant-baseline="ideographic">Sensors</tspan></text></g></g></g><g id="g-root-tx_motionse_18f2f3j7t4mq2-fill" data-item-order="1000000000" data-item-id="tx_motionse_18f2f3j7t4mq2" data-item-class="Label Stroke Indexed" data-item-index="4" data-renderer-id="0" transform="translate(80, 362)"><g id="tx_motionse_18f2f3j7t4mq2-fill" stroke="none" fill="#A8DD38"><g><text style="font: bold 20px Roboto, sans-serif; white-space: pre;" font-weight="bold" font-size="20" font-family="Roboto, sans-serif"><tspan x="22.14" y="33.5" dominant-baseline="ideographic">Motion Sensors</tspan></text></g></g></g><g id="g-root-tx_monitors_1lpwgdr7t4oat-fill" data-item-order="1000000000" data-item-id="tx_monitors_1lpwgdr7t4oat" data-item-class="Label Stroke Indexed ColorFillGray ColorStrokeGray" data-item-index="4" data-renderer-id="0" transform="translate(68, 398)"><g id="tx_monitors_1lpwgdr7t4oat-fill" stroke="none" fill="#A3A3A3"><g><text style="font: 15px Roboto, sans-serif; white-space: pre;" font-weight="15px" font-size="Roboto," font-family="sans-serif"><tspan x="19.07" y="27.5" dominant-baseline="ideographic">Monitors movement for </tspan><tspan x="14.75" y="45.5" dominant-baseline="ideographic">security and automation</tspan></text></g></g></g><g id="g-root-tx_soilmois_13z8wz37t4nic-fill" data-item-order="1000000000" data-item-id="tx_soilmois_13z8wz37t4nic" data-item-class="Label Stroke Indexed" data-item-index="6" data-renderer-id="0" transform="translate(104, 2)"><g id="tx_soilmois_13z8wz37t4nic-fill" stroke="none" fill="#886AFF"><g><text style="font: bold 20px Roboto, sans-serif; white-space: pre;" font-weight="bold" font-size="20" font-family="Roboto, sans-serif"><tspan x="20.52" y="33.5" dominant-baseline="ideographic">Soil Moisture </tspan><tspan x="66.52" y="57.5" dominant-baseline="ideographic">Sensors</tspan></text></g></g></g><g id="g-root-tx_ensureso_1q5pyi77t4nij-fill" data-item-order="1000000000" data-item-id="tx_ensureso_1q5pyi77t4nij" data-item-class="Label Stroke Indexed ColorFillGray ColorStrokeGray" data-item-index="6" data-renderer-id="0" transform="translate(92, 62)"><g id="tx_ensureso_1q5pyi77t4nij-fill" stroke="none" fill="#A3A3A3"><g><text style="font: 15px Roboto, sans-serif; white-space: pre;" font-weight="15px" font-size="Roboto," font-family="sans-serif"><tspan x="17.12" y="27.5" dominant-baseline="ideographic">Ensures optimal soil </tspan><tspan x="14.72" y="45.5" dominant-baseline="ideographic">conditions for plants</tspan></text></g></g></g><g id="g-root-0.cu_sy_v3lwq77t4ob3-stroke" data-item-order="999849257" data-item-id="0.cu_sy_v3lwq77t4ob3" data-item-class="Part Indexed_0 Fill Stroke ColorFillBlack ColorStrokeBlack" data-item-index="0" data-renderer-id="0" transform="translate(265.00885009765625, 122)"><g id="0.cu_sy_v3lwq77t4ob3-stroke" fill="none" stroke-linecap="round" stroke-linejoin="round" stroke-miterlimit="4" stroke="#666666" stroke-width="2"><g><path d="M 10 99.1266C 15.5897 78.0715 26.76 59.2893 41.8313 44.4598M 10 160.8734C 15.625 182.0616 26.9016 200.9481 42.1177 215.8211M 93.3555 245.5088C 103.7319 248.4347 114.6787 250 125.9911 250C 136.9428 250 147.5518 248.5329 157.6324 245.7846M 209.6662 216.0146C 224.6048 201.4798 235.7702 183.0868 241.5537 162.4445M 241.5536 97.5554C 235.8074 77.0458 224.748 58.7566 209.9536 44.266M 157.5289 14.1873C 147.4793 11.4571 136.9054 10 125.9911 10C 114.7164 10 103.8049 11.5549 93.4592 14.462"></path></g></g></g><g id="g-root-6.cu_sy_dcydbj7t4nil-stroke" data-item-order="999849259" data-item-id="6.cu_sy_dcydbj7t4nil" data-item-class="Part Indexed Fill Stroke" data-item-index="6" data-renderer-id="0" transform="translate(248.74502563476562, 53.74560546875)"><g id="6.cu_sy_dcydbj7t4nil-stroke" fill="none" stroke-linecap="round" stroke-linejoin="round" stroke-miterlimit="4" stroke="#886AFF" stroke-width="2"><g><path d="M 52.401109 111.188601C 40.535209 108.009201 29.882309 100.303201 23.254809 88.824001C 10.000009 65.866001 17.866009 36.509601 40.824009 23.254801C 63.782109 10.000001 93.138409 17.866001 106.393209 40.824001C 113.020609 52.303001 114.367909 65.381601 111.188509 77.247301L 98.765509 123.611901L 52.411709 111.191401C 52.408209 111.190501 52.404609 111.189501 52.401109 111.188601Z"></path></g></g></g><g id="g-root-5.cu_sy_dcydbj7t4nik-stroke" data-item-order="999849261" data-item-id="5.cu_sy_dcydbj7t4nik" data-item-class="Part Indexed Fill Stroke" data-item-index="5" data-renderer-id="0" transform="translate(180, 194)"><g id="5.cu_sy_dcydbj7t4nik-stroke" fill="none" stroke-linecap="round" stroke-linejoin="round" stroke-miterlimit="4" stroke="#FFE60A" stroke-width="2"><g><path d="M 91.9414 91.9408C 83.2551 100.6273 71.255 106 58 106C 31.4903 106 10 84.5097 10 58C 10 31.4903 31.4903 10 58 10C 71.2548 9.999999 83.2548 15.3726 91.9411 24.0589L 125.8825 57.9997L 91.9492 91.9331C 91.9466 91.9356 91.944 91.9382 91.9414 91.9408Z"></path></g></g></g><g id="g-root-4.cu_sy_m8ldkf7t4mpv-stroke" data-item-order="999849263" data-item-id="4.cu_sy_m8ldkf7t4mpv" data-item-class="Part Indexed Fill Stroke" data-item-index="4" data-renderer-id="0" transform="translate(248.74502563476562, 317)"><g id="4.cu_sy_m8ldkf7t4mpv-stroke" fill="none" stroke-linecap="round" stroke-linejoin="round" stroke-miterlimit="4" stroke="#A8DD38" stroke-width="2"><g><path d="M 111.188409 56.3644C 114.367909 68.2302 113.020709 81.309 106.393209 92.7881C 93.138409 115.7462 63.782109 123.6122 40.824009 110.3574C 17.866009 97.1025 10.000009 67.7462 23.254809 44.7881C 29.882209 33.3091 40.535009 25.6031 52.400709 22.4237L 98.765009 10L 111.185509 56.3538C 111.186409 56.3573 111.187409 56.3609 111.188409 56.3644Z"></path></g></g></g><g id="g-root-3.cu_sy_m8ldkf7t4mpu-stroke" data-item-order="999849265" data-item-id="3.cu_sy_m8ldkf7t4mpu" data-item-class="Part Indexed Fill Stroke" data-item-index="3" data-renderer-id="0" transform="translate(407.966552734375, 317)"><g id="3.cu_sy_m8ldkf7t4mpu-stroke" fill="none" stroke-linecap="round" stroke-linejoin="round" stroke-miterlimit="4" stroke="#44E095" stroke-width="2"><g><path d="M 13.179588 56.3644C 9.999988 68.2302 11.347188 81.309 17.974688 92.7881C 31.229488 115.7462 60.585888 123.6122 83.543888 110.3574C 106.501988 97.1025 114.367988 67.7462 101.113088 44.7881C 94.485688 33.3091 83.832888 25.6031 71.967188 22.4237L 25.602888 10L 13.182388 56.3538C 13.181488 56.3573 13.180488 56.3609 13.179588 56.3644Z"></path></g></g></g><g id="g-root-2.cu_sy_qoevov7t4lxl-stroke" data-item-order="999849267" data-item-id="2.cu_sy_qoevov7t4lxl" data-item-class="Part Indexed Fill Stroke" data-item-index="2" data-renderer-id="0" transform="translate(464.11767578125, 194)"><g id="2.cu_sy_qoevov7t4lxl-stroke" fill="none" stroke-linecap="round" stroke-linejoin="round" stroke-miterlimit="4" stroke="#1AC6FF" stroke-width="2"><g><path d="M 43.9411 91.9408C 52.6274 100.6273 64.6276 106 77.8825 106C 104.3922 106 125.8825 84.5097 125.8825 58C 125.8825 31.4903 104.3922 10 77.8825 10C 64.6277 9.999999 52.6277 15.3726 43.9414 24.0589L 10 57.9997L 43.9333 91.9331C 43.9359 91.9356 43.9385 91.9382 43.9411 91.9408Z"></path></g></g></g><g id="g-root-1.cu_sy_qoevov7t4lxk-stroke" data-item-order="999849269" data-item-id="1.cu_sy_qoevov7t4lxk" data-item-class="Part Indexed Indexed_1 Fill Stroke" data-item-index="1" data-renderer-id="0" transform="translate(407.9666748046875, 53.74560546875)"><g id="1.cu_sy_qoevov7t4lxk-stroke" fill="none" stroke-linecap="round" stroke-linejoin="round" stroke-miterlimit="4" stroke="#FD6A65" stroke-width="2"><g><path d="M 71.966697 111.188601C 83.832597 108.009201 94.485497 100.303201 101.112997 88.824001C 114.367897 65.866001 106.501897 36.509601 83.543797 23.254801C 60.585797 10.000001 31.229397 17.866001 17.974597 40.824001C 11.347197 52.303001 9.999997 65.381601 13.179397 77.247301L 25.602297 123.611901L 71.956097 111.191401C 71.959597 111.190501 71.963197 111.189501 71.966697 111.188601Z"></path></g></g></g><g id="g-root-cels_58pgv7t62v5-stroke" data-item-order="1000000000" data-item-id="cels_58pgv7t62v5" data-item-class="Icon Stroke Indexed Indexed_1 InsideFill InsideColorFill" data-item-index="1" data-renderer-id="0" transform="translate(434, 86)"><g id="cels_58pgv7t62v5-stroke" fill="none" stroke-linecap="round" stroke-linejoin="round" stroke-miterlimit="4" stroke="#FD6A65" stroke-width="2"><g><path d="M 11.714286 16.857143C 11.714286 19.697464 14.016822 22 16.857143 22C 19.697464 22 22 19.697464 22 16.857143C 22 14.016822 19.697464 11.714286 16.857143 11.714286C 14.016822 11.714286 11.714286 14.016822 11.714286 16.857143M 56.285713 16.308571C 48.56834 13.593777 39.975796 15.709905 34.401733 21.698048C 28.827671 27.68619 27.331633 36.4081 30.591534 43.911503C 33.851437 51.414902 41.247627 56.273525 49.428574 56.285713C 51.763885 56.289181 54.082737 55.894974 56.285713 55.120003"></path></g></g></g><g id="g-root-none_4l27lb7t622v-stroke" data-item-order="1000000000" data-item-id="none_4l27lb7t622v" data-item-class="Icon Stroke Indexed InsideFill InsideColorFill" data-item-index="6" data-renderer-id="0" transform="translate(278, 86)"><g id="none_4l27lb7t622v-stroke" fill="none" stroke-linecap="round" stroke-linejoin="round" stroke-miterlimit="4" stroke="#886AFF" stroke-width="2"><g><path d="M 11.714286 56.285713L 56.285713 11.714286M 26.628571 54.57143C 31.434443 57.185577 37.265289 57.059204 41.953388 54.239296C 46.641487 51.419388 49.485676 46.32769 49.428574 40.857143C 49.270714 38.553497 48.689579 36.298683 47.714287 34.205715M 42.914288 25.085714C 38.697144 18.022858 34 11.714286 34 11.714286C 34 11.714286 18.571428 32.32 18.571428 40.857143C 18.594372 43.246029 19.181778 45.59565 20.285715 47.714287"></path></g></g></g><g id="g-root-tx_lightsen_13z8wz37t4nib-stroke" data-item-order="1000000000" data-item-id="tx_lightsen_13z8wz37t4nib" data-item-class="Label Stroke Indexed" data-item-index="5" data-renderer-id="0" transform="translate(26, 194)"></g><g id="g-root-tx_measures_1hapfcf7t4lxc-stroke" data-item-order="1000000000" data-item-id="tx_measures_1hapfcf7t4lxc" data-item-class="Label Stroke Indexed Indexed_1 ColorFillGray ColorStrokeGray" data-item-index="1" data-renderer-id="0" transform="translate(524, 62)"></g><g id="g-root-natu_dhy60f7t7hn1-stroke" data-item-order="1000000000" data-item-id="natu_dhy60f7t7hn1" data-item-class="Icon Stroke InsideFill ColorStrokeBlack" data-item-index="none" data-renderer-id="0" transform="translate(332, 194)"><g id="natu_dhy60f7t7hn1-stroke" fill="none" stroke-linecap="round" stroke-linejoin="round" stroke-miterlimit="4" stroke="#666666" stroke-width="2"><g><path d="M 100 59.32C 100 83.620529 80.300529 103.32 56 103.32C 31.699472 103.32 12.000002 83.620529 12.000002 59.32ZM 22 87.32L 44 87.32C 48.418278 87.32 52 83.738281 52 79.32C 52 74.901726 48.418278 71.32 44 71.32C 39.581722 71.32 36 67.738281 36 63.32L 36 59.32M 95.199997 79.32L 80 79.32C 75.581718 79.32 72 82.901726 72 87.32L 72 100.32M 103.120003 42L 95.120003 31.08C 97.760002 33.16 101.559998 30.08 98.919998 26.280001L 89.599998 13.48C 89.22229 12.976388 88.629517 12.68 88 12.68C 87.370483 12.68 86.77771 12.976388 86.400002 13.48L 77.120003 26C 74.480003 30 78.279999 32.879997 80.919998 30.799999L 72.880005 42C 72.08107 42.862137 71.797546 44.082443 72.134544 45.208496C 72.471542 46.334549 73.378815 47.198486 74.520004 47.48L 101.480003 47.48C 102.606071 47.178364 103.495331 46.314587 103.829559 45.197754C 104.163795 44.080917 103.895248 42.870644 103.119995 42ZM 88 47.32L 88 59.32M 70 53.32L 50.52 31.08C 50.147793 30.622795 49.589554 30.357416 49 30.357416C 48.410446 30.357416 47.852207 30.622795 47.48 31.08L 36.239998 44.040001M 44.040001 53.32L 32.040001 39.080002C 31.663759 38.650482 31.130163 38.390892 30.559999 38.360001C 29.977448 38.349476 29.42041 38.598679 29.040001 39.040001L 16.32 53.32"></path></g></g></g><g id="g-root-tx_humidity_18f2f3j7t4mq1-stroke" data-item-order="1000000000" data-item-id="tx_humidity_18f2f3j7t4mq1" data-item-class="Label Stroke Indexed" data-item-index="2" data-renderer-id="0" transform="translate(602, 194)"></g><g id="g-root-tx_adjustsl_1lpwgdr7t4oas-stroke" data-item-order="1000000000" data-item-id="tx_adjustsl_1lpwgdr7t4oas" data-item-class="Label Stroke Indexed ColorFillGray ColorStrokeGray" data-item-index="5" data-renderer-id="0" transform="translate(2, 230)"></g><g id="g-root-bulb_1hdtsrz7t7h1i-stroke" data-item-order="1000000000" data-item-id="bulb_1hdtsrz7t7h1i" data-item-class="Icon Stroke Indexed InsideFill InsideColorFill" data-item-index="5" data-renderer-id="0" transform="translate(200, 218)"><g id="bulb_1hdtsrz7t7h1i-stroke" fill="none" stroke-linecap="round" stroke-linejoin="round" stroke-miterlimit="4" stroke="#FFE60A" stroke-width="2"><g><path d="M 18.028 27C 18.028 35.836555 25.191444 43 34.028 43C 42.864555 43 50.028 35.836555 50.028 27C 50.028 18.163445 42.864555 11 34.028 11C 25.191444 11 18.028 18.163445 18.028 27ZM 29.028 47L 39.028 47M 29.028 51L 39.028 51M 29.028 55L 39.028 55M 34.028 55L 34.028 57M 40.028 33L 37.734001 35.292C 37.343498 35.682381 36.710503 35.682381 36.32 35.292L 34.028 33L 31.733999 35.292C 31.3435 35.682381 30.710501 35.682381 30.32 35.292L 28.028 33M 34.028 33L 34.028 43"></path></g></g></g><g id="g-root-high_58pgv7t62v4-stroke" data-item-order="1000000000" data-item-id="high_58pgv7t62v4" data-item-class="Icon Stroke Indexed InsideFill InsideColorFill" data-item-index="2" data-renderer-id="0" transform="translate(507, 218)"><g id="high_58pgv7t62v4-stroke" fill="none" stroke-linecap="round" stroke-linejoin="round" stroke-miterlimit="4" stroke="#1AC6FF" stroke-width="2"><g><path d="M 36 48C 28.615501 50.456814 20.479382 48.161888 15.46715 42.208374C 10.45492 36.254864 9.580133 27.846661 13.259482 20.98888C 16.938831 14.131098 24.428291 10.210494 32.160378 11.094584C 39.892464 11.978674 46.303619 17.48868 48.34 25M 41 49C 41 53.418278 44.581722 57 49 57C 53.418278 57 57 53.418278 57 49C 57 43 53 35 49 31C 44.194279 35.800896 41.343224 42.215771 41 48.999996ZM 41.32 26C 41.772068 27.28507 42.002022 28.637735 42 30C 41.998024 32.512383 41.207539 34.960785 39.740002 37M 20.24 37C 17.613255 33.342529 17.255198 28.522327 19.312725 24.516895C 21.370253 20.511463 25.497013 17.995043 30 18C 33.184174 17.989475 36.239292 19.257637 38.480003 21.52M 27 30C 27 31.656855 28.343147 33 30 33C 31.656855 33 33 31.656855 33 30C 33 28.343147 31.656855 27 30 27C 28.343147 27 27 28.343147 27 30M 32.120003 27.879999L 41 19"></path></g></g></g><g id="g-root-tx_tracksmo_1cuvx7z7t4lxr-stroke" data-item-order="1000000000" data-item-id="tx_tracksmo_1cuvx7z7t4lxr" data-item-class="Label Stroke Indexed ColorFillGray ColorStrokeGray" data-item-index="2" data-renderer-id="0" transform="translate(602, 230)"></g><g id="g-root-tx_detectsp_1cuvx7z7t4lxq-stroke" data-item-order="1000000000" data-item-id="tx_detectsp_1cuvx7z7t4lxq" data-item-class="Label Stroke Indexed ColorFillGray ColorStrokeGray" data-item-index="3" data-renderer-id="0" transform="translate(524, 398)"></g><g id="g-root-tx_temperat_v3lwq77t4ob2-stroke" data-item-order="1000000000" data-item-id="tx_temperat_v3lwq77t4ob2" data-item-class="Label Stroke Indexed Indexed_1" data-item-index="1" data-renderer-id="0" transform="translate(524, 2)"></g><g id="g-root-circ_1upab5b7t7fgk-stroke" data-item-order="1000000000" data-item-id="circ_1upab5b7t7fgk" data-item-class="Icon Stroke Indexed InsideFill InsideColorFill" data-item-index="4" data-renderer-id="0" transform="translate(278, 350)"><g id="circ_1upab5b7t7fgk-stroke" fill="none" stroke-linecap="round" stroke-linejoin="round" stroke-miterlimit="4" stroke="#A8DD38" stroke-width="2"><g><path d="M 11.714286 34C 11.714287 46.308064 21.69194 56.285713 34 56.285713C 46.308064 56.285713 56.285713 46.308064 56.285713 34C 56.285713 21.69194 46.308064 11.714287 34 11.714287C 21.69194 11.714287 11.714287 21.69194 11.714287 34M 28.857143 23.714287L 34 20.285715L 39.142857 23.714287M 28.857143 44.285713L 34 47.714287L 39.142857 44.285713M 44.285713 28.857143L 47.714287 34L 44.285713 39.142857M 23.714287 28.857143L 20.285715 34L 23.714287 39.142857"></path></g></g></g><g id="g-root-glas_1ltnawf7t7g99-stroke" data-item-order="1000000000" data-item-id="glas_1ltnawf7t7g99" data-item-class="Icon Stroke Indexed InsideFill InsideColorFill" data-item-index="3" data-renderer-id="0" transform="translate(434, 350)"><g id="glas_1ltnawf7t7g99-stroke" fill="none" stroke-linecap="round" stroke-linejoin="round" stroke-miterlimit="4" stroke="#44E095" stroke-width="2"><g><path d="M 31.156 30.898001C 31.155226 36.60807 35.783932 41.237404 41.494003 41.237404C 47.204067 41.237404 51.832775 36.60807 51.832001 30.898001C 51.832775 25.187931 47.204067 20.558596 41.494003 20.558596C 35.783932 20.558596 31.155226 25.187931 31.156 30.898001M 48.73 38.136002L 57 46.403999M 15.134 16.426001C 15.136209 13.57121 17.451874 11.258529 20.306664 11.260001C 23.161457 11.261473 25.474735 13.576541 25.473999 16.431332C 25.473263 19.286123 23.158791 21.599998 20.304001 21.6L 11 21.6M 30.639999 51.574001C 30.64221 54.428791 32.957874 56.741474 35.812668 56.740002C 38.667458 56.738529 40.980736 54.423458 40.98 51.568668C 40.979263 48.713879 38.664791 46.400002 35.810001 46.400002L 11 46.400002M 12.034 29.865999L 23.403999 29.865999M 12.034 38.134003L 19.27 38.134003"></path></g></g></g><g id="g-root-tx_airquali_13z8wz37t4nid-stroke" data-item-order="1000000000" data-item-id="tx_airquali_13z8wz37t4nid" data-item-class="Label Stroke Indexed" data-item-index="3" data-renderer-id="0" transform="translate(524, 338)"></g><g id="g-root-tx_motionse_18f2f3j7t4mq2-stroke" data-item-order="1000000000" data-item-id="tx_motionse_18f2f3j7t4mq2" data-item-class="Label Stroke Indexed" data-item-index="4" data-renderer-id="0" transform="translate(80, 362)"></g><g id="g-root-tx_monitors_1lpwgdr7t4oat-stroke" data-item-order="1000000000" data-item-id="tx_monitors_1lpwgdr7t4oat" data-item-class="Label Stroke Indexed ColorFillGray ColorStrokeGray" data-item-index="4" data-renderer-id="0" transform="translate(68, 398)"></g><g id="g-root-tx_soilmois_13z8wz37t4nic-stroke" data-item-order="1000000000" data-item-id="tx_soilmois_13z8wz37t4nic" data-item-class="Label Stroke Indexed" data-item-index="6" data-renderer-id="0" transform="translate(104, 2)"></g><g id="g-root-tx_ensureso_1q5pyi77t4nij-stroke" data-item-order="1000000000" data-item-id="tx_ensureso_1q5pyi77t4nij" data-item-class="Label Stroke Indexed ColorFillGray ColorStrokeGray" data-item-index="6" data-renderer-id="0" transform="translate(92, 62)"></g></g></g></svg>