<?xml version="1.0" encoding="utf-8" standalone="yes"?>
<!DOCTYPE svg PUBLIC "-//W3C//DTD SVG 1.1//EN" "http://www.w3.org/Graphics/SVG/1.1/DTD/svg11.dtd">
<svg width="531" height="482" viewBox="0 0 531 482" style="fill:none;stroke:none;fill-rule:evenodd;clip-rule:evenodd;stroke-linecap:round;stroke-linejoin:round;stroke-miterlimit:1.5;" version="1.1" xmlns="http://www.w3.org/2000/svg" xmlns:xlink="http://www.w3.org/1999/xlink"><style id="fontImports">@import url("https://fonts.googleapis.com/css2?family=Roboto:wght@400;700&amp;display=block");</style><g id="items" style="isolation: isolate"><g id="blend" style="mix-blend-mode:normal"><g id="g-root-3.cu_sy_91iw3j655on4-fill" data-item-order="999770181" data-item-id="3.cu_sy_91iw3j655on4" data-item-class="Curve Stroke Part Indexed ColorFillBlack ColorStrokeGray" data-item-index="3" data-renderer-id="0" transform="translate(3, 110.9990234375)"></g><g id="g-root-2.cu_sy_dhce7z655nuv-fill" data-item-order="999770183" data-item-id="2.cu_sy_dhce7z655nuv" data-item-class="Part Indexed Stroke ColorStrokeGray" data-item-index="2" data-renderer-id="0" transform="translate(255.00100708007812, 3)"></g><g id="g-root-1.cu_sy_dhce7z655nuu-fill" data-item-order="999770184" data-item-id="1.cu_sy_dhce7z655nuu" data-item-class="Part Indexed Indexed_1 Fill Stroke ColorStrokeGray" data-item-index="1" data-renderer-id="0" transform="translate(225.00100708007812, 27)"></g><g id="g-root-tx_pros_hx5wcf655n2l-fill" data-item-order="1000000000" data-item-id="tx_pros_hx5wcf655n2l" data-item-class="Label Stroke ColorStrokeGray" data-item-index="none" data-renderer-id="0" transform="translate(63.001007080078125, 39)"><g id="tx_pros_hx5wcf655n2l-fill" stroke="none" fill="#A3A3A3"><g><text style="font: 20px Roboto, sans-serif; white-space: pre;" font-weight="20px" font-size="Roboto," font-family="sans-serif"><tspan x="12" y="33.5" dominant-baseline="ideographic">Pros</tspan></text></g></g></g><g id="g-root-tx_cons_hx5wcf655n2k-fill" data-item-order="1000000000" data-item-id="tx_cons_hx5wcf655n2k" data-item-class="Label Stroke ColorStrokeGray" data-item-index="none" data-renderer-id="0" transform="translate(363.0010070800781, 39)"><g id="tx_cons_hx5wcf655n2k-fill" stroke="none" fill="#A3A3A3"><g><text style="font: 20px Roboto, sans-serif; white-space: pre;" font-weight="20px" font-size="Roboto," font-family="sans-serif"><tspan x="12" y="33.5" dominant-baseline="ideographic">Cons</tspan></text></g></g></g><g id="g-root-doll_1cvj3lr658glc-fill" data-item-order="1000000000" data-item-id="doll_1cvj3lr658glc" data-item-class="Icon Stroke Indexed Indexed_1 ColorStrokeGray" data-item-index="1" data-renderer-id="0" transform="translate(3.001007080078125, 147)"></g><g id="g-root-tx_requires_v7zxmn655onb-fill" data-item-order="1000000000" data-item-id="tx_requires_v7zxmn655onb" data-item-class="Label Stroke Indexed ColorStrokeGray" data-item-index="101" data-renderer-id="0" transform="translate(363.0010070800781, 135)"><g id="tx_requires_v7zxmn655onb-fill" stroke="none" fill="#A3A3A3"><g><text style="font: 20px Roboto, sans-serif; white-space: pre;" font-weight="20px" font-size="Roboto," font-family="sans-serif"><tspan x="12" y="33.5" dominant-baseline="ideographic">Requires </tspan><tspan x="12" y="57.5" dominant-baseline="ideographic">technical </tspan><tspan x="12" y="81.5" dominant-baseline="ideographic">knowledge</tspan></text></g></g></g><g id="g-root-tx_costeffe_hx5wcf655n2j-fill" data-item-order="1000000000" data-item-id="tx_costeffe_hx5wcf655n2j" data-item-class="Label Stroke Indexed Indexed_1 ColorStrokeGray" data-item-index="1" data-renderer-id="0" transform="translate(63.001007080078125, 159)"><g id="tx_costeffe_hx5wcf655n2j-fill" stroke="none" fill="#A3A3A3"><g><text style="font: 20px Roboto, sans-serif; white-space: pre;" font-weight="20px" font-size="Roboto," font-family="sans-serif"><tspan x="12" y="33.5" dominant-baseline="ideographic">Cost-effective</tspan></text></g></g></g><g id="g-root-2_1lqjmrj658i6m-fill" data-item-order="1000000000" data-item-id="2_1lqjmrj658i6m" data-item-class="Icon Stroke Indexed ColorStrokeGray" data-item-index="101" data-renderer-id="0" transform="translate(303.0010070800781, 147)"></g><g id="g-root-stee_18mktfj6571ms-fill" data-item-order="1000000000" data-item-id="stee_18mktfj6571ms" data-item-class="Icon Stroke Indexed ColorStrokeGray" data-item-index="2" data-renderer-id="0" transform="translate(3.001007080078125, 231)"></g><g id="g-root-tx_complete_qs6fi7655pfm-fill" data-item-order="1000000000" data-item-id="tx_complete_qs6fi7655pfm" data-item-class="Label Stroke Indexed ColorStrokeGray" data-item-index="2" data-renderer-id="0" transform="translate(63.001007080078125, 231)"><g id="tx_complete_qs6fi7655pfm-fill" stroke="none" fill="#A3A3A3"><g><text style="font: 20px Roboto, sans-serif; white-space: pre;" font-weight="20px" font-size="Roboto," font-family="sans-serif"><tspan x="12" y="33.5" dominant-baseline="ideographic">Complete </tspan><tspan x="12" y="57.5" dominant-baseline="ideographic">control</tspan></text></g></g></g><g id="g-root-wren_zqxt6n6572fh-fill" data-item-order="1000000000" data-item-id="wren_zqxt6n6572fh" data-item-class="Icon Stroke Indexed ColorStrokeGray" data-item-index="102" data-renderer-id="0" transform="translate(303.0010070800781, 231)"></g><g id="g-root-tx_maintena_v7zxmn655ona-fill" data-item-order="1000000000" data-item-id="tx_maintena_v7zxmn655ona" data-item-class="Label Stroke Indexed ColorStrokeGray" data-item-index="102" data-renderer-id="0" transform="translate(363.0010070800781, 231)"><g id="tx_maintena_v7zxmn655ona-fill" stroke="none" fill="#A3A3A3"><g><text style="font: 20px Roboto, sans-serif; white-space: pre;" font-weight="20px" font-size="Roboto," font-family="sans-serif"><tspan x="12" y="33.5" dominant-baseline="ideographic">Maintenance </tspan><tspan x="12" y="57.5" dominant-baseline="ideographic">responsibility</tspan></text></g></g></g><g id="g-root-user_1haq4n3658iyv-fill" data-item-order="1000000000" data-item-id="user_1haq4n3658iyv" data-item-class="Icon Stroke Indexed ColorStrokeGray" data-item-index="3" data-renderer-id="0" transform="translate(3.001007080078125, 315)"></g><g id="g-root-tx_enhanced_qs6fi7655pfl-fill" data-item-order="1000000000" data-item-id="tx_enhanced_qs6fi7655pfl" data-item-class="Label Stroke Indexed ColorStrokeGray" data-item-index="3" data-renderer-id="0" transform="translate(63.001007080078125, 315)"><g id="tx_enhanced_qs6fi7655pfl-fill" stroke="none" fill="#A3A3A3"><g><text style="font: 20px Roboto, sans-serif; white-space: pre;" font-weight="20px" font-size="Roboto," font-family="sans-serif"><tspan x="12" y="33.5" dominant-baseline="ideographic">Enhanced </tspan><tspan x="12" y="57.5" dominant-baseline="ideographic">privacy</tspan></text></g></g></g><g id="g-root-add_1d1rugv65740a-fill" data-item-order="1000000000" data-item-id="add_1d1rugv65740a" data-item-class="Icon Stroke Indexed ColorStrokeGray" data-item-index="103" data-renderer-id="0" transform="translate(303.0010070800781, 315)"></g><g id="g-root-tx_initials_v7zxmn655on9-fill" data-item-order="1000000000" data-item-id="tx_initials_v7zxmn655on9" data-item-class="Label Stroke Indexed ColorStrokeGray" data-item-index="103" data-renderer-id="0" transform="translate(363.0010070800781, 315)"><g id="tx_initials_v7zxmn655on9-fill" stroke="none" fill="#A3A3A3"><g><text style="font: 20px Roboto, sans-serif; white-space: pre;" font-weight="20px" font-size="Roboto," font-family="sans-serif"><tspan x="12" y="33.5" dominant-baseline="ideographic">Initial setup </tspan><tspan x="12" y="57.5" dominant-baseline="ideographic">effort</tspan></text></g></g></g><g id="g-root-sear_1d1rugv65740b-fill" data-item-order="1000000000" data-item-id="sear_1d1rugv65740b" data-item-class="Icon Stroke Indexed ColorStrokeGray" data-item-index="4" data-renderer-id="0" transform="translate(3.001007080078125, 399)"></g><g id="g-root-tx_learning_qs6fi7655pfk-fill" data-item-order="1000000000" data-item-id="tx_learning_qs6fi7655pfk" data-item-class="Label Stroke Indexed ColorStrokeGray" data-item-index="4" data-renderer-id="0" transform="translate(63.001007080078125, 399)"><g id="tx_learning_qs6fi7655pfk-fill" stroke="none" fill="#A3A3A3"><g><text style="font: 20px Roboto, sans-serif; white-space: pre;" font-weight="20px" font-size="Roboto," font-family="sans-serif"><tspan x="12" y="33.5" dominant-baseline="ideographic">Learning </tspan><tspan x="12" y="57.5" dominant-baseline="ideographic">opportunity</tspan></text></g></g></g><g id="g-root-left_zntfr365720x-fill" data-item-order="1000000000" data-item-id="left_zntfr365720x" data-item-class="Icon Stroke Indexed ColorStrokeGray" data-item-index="104" data-renderer-id="0" transform="translate(303.0010070800781, 399)"></g><g id="g-root-tx_basicfun_zntfr3655nv0-fill" data-item-order="1000000000" data-item-id="tx_basicfun_zntfr3655nv0" data-item-class="Label Stroke Indexed ColorStrokeGray" data-item-index="104" data-renderer-id="0" transform="translate(363.0010070800781, 399)"><g id="tx_basicfun_zntfr3655nv0-fill" stroke="none" fill="#A3A3A3"><g><text style="font: 20px Roboto, sans-serif; white-space: pre;" font-weight="20px" font-size="Roboto," font-family="sans-serif"><tspan x="12" y="33.5" dominant-baseline="ideographic">Basic </tspan><tspan x="12" y="57.5" dominant-baseline="ideographic">functionality</tspan></text></g></g></g><g id="g-root-3.cu_sy_91iw3j655on4-stroke" data-item-order="999770181" data-item-id="3.cu_sy_91iw3j655on4" data-item-class="Curve Stroke Part Indexed ColorFillBlack ColorStrokeGray" data-item-index="3" data-renderer-id="0" transform="translate(3, 110.9990234375)"><g id="3.cu_sy_91iw3j655on4-stroke" fill="none" stroke-linecap="round" stroke-linejoin="round" stroke-miterlimit="4" stroke="#A3A3A3" stroke-width="2"><g><path d="M 513.999999 10.000007L 9.999999 10.001007"></path></g></g></g><g id="g-root-2.cu_sy_dhce7z655nuv-stroke" data-item-order="999770183" data-item-id="2.cu_sy_dhce7z655nuv" data-item-class="Part Indexed Stroke ColorStrokeGray" data-item-index="2" data-renderer-id="0" transform="translate(255.00100708007812, 3)"><g id="2.cu_sy_dhce7z655nuv-stroke" fill="none" stroke-linecap="round" stroke-linejoin="round" stroke-miterlimit="4" stroke="#A3A3A3" stroke-width="2"><g><path d="M 10 298L 10 214M 10 382L 10 298M 10 466L 10 382M 10 214L 10 118M 10 118L 10 80M 10 36L 10 10"></path></g></g></g><g id="g-root-1.cu_sy_dhce7z655nuu-stroke" data-item-order="999770184" data-item-id="1.cu_sy_dhce7z655nuu" data-item-class="Part Indexed Indexed_1 Fill Stroke ColorStrokeGray" data-item-index="1" data-renderer-id="0" transform="translate(225.00100708007812, 27)"><g id="1.cu_sy_dhce7z655nuu-stroke" fill="none" stroke-linecap="round" stroke-linejoin="round" stroke-miterlimit="4" stroke="#A3A3A3" stroke-width="2"><g><path d="M 10 34L 28 10L 28 18L 52 18L 52 10L 70 34L 52 58L 52 50L 28 50L 28 58L 10 34Z"></path></g></g><g id="1.cu_sy_dhce7z655nuu-stroke" fill="none" stroke-linecap="round" stroke-linejoin="round" stroke-miterlimit="4" stroke="#A3A3A3" stroke-width="2"><g><path d="M 30.599 28.373L 34.999 39.48M 35.199 39.097L 39.599 28.66M 49.399 30.192C 49.065 29.937 48.732 29.682 48.399 29.426C 47.799 28.852 46.832 28.628 45.499 28.756C 44.165 28.884 43.465 29.522 43.399 30.671C 43.265 31.82 44.232 32.905 46.299 33.927C 48.432 34.884 49.465 36.001 49.399 37.278C 49.399 38.555 48.632 39.321 47.099 39.576C 45.499 39.767 44.432 39.416 43.899 38.523C 43.565 38.076 43.265 37.629 42.999 37.182"></path></g></g></g><g id="g-root-tx_pros_hx5wcf655n2l-stroke" data-item-order="1000000000" data-item-id="tx_pros_hx5wcf655n2l" data-item-class="Label Stroke ColorStrokeGray" data-item-index="none" data-renderer-id="0" transform="translate(63.001007080078125, 39)"></g><g id="g-root-tx_cons_hx5wcf655n2k-stroke" data-item-order="1000000000" data-item-id="tx_cons_hx5wcf655n2k" data-item-class="Label Stroke ColorStrokeGray" data-item-index="none" data-renderer-id="0" transform="translate(363.0010070800781, 39)"></g><g id="g-root-doll_1cvj3lr658glc-stroke" data-item-order="1000000000" data-item-id="doll_1cvj3lr658glc" data-item-class="Icon Stroke Indexed Indexed_1 ColorStrokeGray" data-item-index="1" data-renderer-id="0" transform="translate(3.001007080078125, 147)"><g id="doll_1cvj3lr658glc-stroke" fill="none" stroke-linecap="round" stroke-linejoin="round" stroke-miterlimit="4" stroke="#A3A3A3" stroke-width="2"><g><path d="M 25.428572 46L 38.628574 46C 41.548523 46.01215 43.997971 43.799973 44.282356 40.893879C 44.566746 37.987785 42.592628 35.34272 39.725716 34.78857L 28.274286 33.21143C 25.407375 32.65728 23.433254 30.012215 23.717644 27.106121C 24.002031 24.200029 26.451479 21.987852 29.371429 22L 42.57143 22M 34 56.285713L 34 11.714286"></path></g></g></g><g id="g-root-tx_requires_v7zxmn655onb-stroke" data-item-order="1000000000" data-item-id="tx_requires_v7zxmn655onb" data-item-class="Label Stroke Indexed ColorStrokeGray" data-item-index="101" data-renderer-id="0" transform="translate(363.0010070800781, 135)"></g><g id="g-root-tx_costeffe_hx5wcf655n2j-stroke" data-item-order="1000000000" data-item-id="tx_costeffe_hx5wcf655n2j" data-item-class="Label Stroke Indexed Indexed_1 ColorStrokeGray" data-item-index="1" data-renderer-id="0" transform="translate(63.001007080078125, 159)"></g><g id="g-root-2_1lqjmrj658i6m-stroke" data-item-order="1000000000" data-item-id="2_1lqjmrj658i6m" data-item-class="Icon Stroke Indexed ColorStrokeGray" data-item-index="101" data-renderer-id="0" transform="translate(303.0010070800781, 147)"><g id="2_1lqjmrj658i6m-stroke" fill="none" stroke-linecap="round" stroke-linejoin="round" stroke-miterlimit="4" stroke="#A3A3A3" stroke-width="2"><g><path d="M 29 34.001999C 29 36.763424 31.238577 39.001999 34 39.001999C 36.761425 39.001999 39 36.763424 39 34.001999C 39 31.240576 36.761425 29.002001 34 29.002001C 31.238577 29.002001 29 31.240576 29 34.001999ZM 18 34.001999C 18 42.838554 25.163445 50.001999 34 50.001999C 42.836555 50.001999 50 42.838554 50 34.001999C 50 25.165443 42.836555 18.001999 34 18.001999C 25.163445 18.001999 18 25.165443 18 34.001999ZM 34 18.001999L 34 11.002M 45.313999 22.688L 50.264 17.737999M 50 34.001999L 57 34.001999M 45.313999 45.316002L 50.264 50.265999M 34 50.001999L 34 57.001999M 22.686001 45.316002L 17.736 50.265999M 18 34.001999L 11 34.001999M 22.686001 22.688L 17.736 17.737999"></path></g></g></g><g id="g-root-stee_18mktfj6571ms-stroke" data-item-order="1000000000" data-item-id="stee_18mktfj6571ms" data-item-class="Icon Stroke Indexed ColorStrokeGray" data-item-index="2" data-renderer-id="0" transform="translate(3.001007080078125, 231)"><g id="stee_18mktfj6571ms-stroke" fill="none" stroke-linecap="round" stroke-linejoin="round" stroke-miterlimit="4" stroke="#A3A3A3" stroke-width="2"><g><path d="M 11 34C 11 46.702549 21.297451 57 34 57C 46.702549 57 57 46.702549 57 34C 57 21.297451 46.702549 11 34 11C 21.297451 11 11 21.297451 11 34ZM 17.644001 29.472C 28.298929 26.176014 39.701073 26.176014 50.356003 29.472M 17 34C 17 43.38884 24.61116 51 34 51C 43.38884 51 51 43.38884 51 34C 51 24.61116 43.38884 17 34 17C 24.61116 17 17 24.61116 17 34ZM 31 34C 31 35.656853 32.343147 37 34 37C 35.656853 37 37 35.656853 37 34C 37 32.343147 35.656853 31 34 31C 32.343147 31 31 32.343147 31 34ZM 17.063999 35.034C 17.374001 35.012001 17.686001 35 18 35C 25.179703 35 31.000002 40.820297 31 48C 31.000847 48.902317 30.904966 49.802124 30.714001 50.684002M 37.278 50.683998C 37.080547 49.803307 36.987244 48.902466 37 48C 37 40.820297 42.820301 35 50 35C 50.360001 35 50.613998 35.054001 50.964001 35.084"></path></g></g></g><g id="g-root-tx_complete_qs6fi7655pfm-stroke" data-item-order="1000000000" data-item-id="tx_complete_qs6fi7655pfm" data-item-class="Label Stroke Indexed ColorStrokeGray" data-item-index="2" data-renderer-id="0" transform="translate(63.001007080078125, 231)"></g><g id="g-root-wren_zqxt6n6572fh-stroke" data-item-order="1000000000" data-item-id="wren_zqxt6n6572fh" data-item-class="Icon Stroke Indexed ColorStrokeGray" data-item-index="102" data-renderer-id="0" transform="translate(303.0010070800781, 231)"><g id="wren_zqxt6n6572fh-stroke" fill="none" stroke-linecap="round" stroke-linejoin="round" stroke-miterlimit="4" stroke="#A3A3A3" stroke-width="2"><g><path d="M 56.045715 22.308571C 55.91172 21.581938 55.47554 20.946358 54.845715 20.559999L 47.988571 27.417143C 47.342342 28.087606 46.451199 28.466375 45.52 28.466375C 44.588799 28.466375 43.697659 28.087606 43.05143 27.417143L 40.445717 25.085714C 39.138939 23.752537 39.138939 21.618893 40.445717 20.285715L 47.302856 13.428572C 47.000103 12.717376 46.397224 12.177299 45.657143 11.954286C 40.775776 10.980844 35.766331 12.873705 32.748444 16.831947C 29.730558 20.790192 29.231665 26.122034 31.462858 30.571428L 12.742857 49.119999C 12.083157 49.765053 11.711284 50.648769 11.711284 51.57143C 11.711284 52.494087 12.083157 53.377804 12.742857 54.022858L 13.977142 55.257141C 14.622196 55.916847 15.505913 56.288715 16.428572 56.288715C 17.351231 56.288715 18.234947 55.916847 18.879999 55.257141L 37.600002 36.57143C 42.048428 38.690815 47.31094 38.126667 51.209045 35.112518C 55.107147 32.098373 56.977451 27.147182 56.045715 22.308573Z"></path></g></g></g><g id="g-root-tx_maintena_v7zxmn655ona-stroke" data-item-order="1000000000" data-item-id="tx_maintena_v7zxmn655ona" data-item-class="Label Stroke Indexed ColorStrokeGray" data-item-index="102" data-renderer-id="0" transform="translate(363.0010070800781, 231)"></g><g id="g-root-user_1haq4n3658iyv-stroke" data-item-order="1000000000" data-item-id="user_1haq4n3658iyv" data-item-class="Icon Stroke Indexed ColorStrokeGray" data-item-index="3" data-renderer-id="0" transform="translate(3.001007080078125, 315)"><g id="user_1haq4n3658iyv-stroke" fill="none" stroke-linecap="round" stroke-linejoin="round" stroke-miterlimit="4" stroke="#A3A3A3" stroke-width="2"><g><path d="M 56.5 41.641998C 56.5 48.5 47.358002 56.5 47.358002 56.5C 47.358002 56.5 38.214001 48.5 38.214001 41.641998C 38.28791 36.645187 42.359642 32.63324 47.356998 32.63324C 52.354355 32.63324 56.42609 36.645187 56.5 41.641998ZM 43.928001 42.785999L 46.214001 45.071999L 50.785999 40.5M 34 51.5L 15.344 51.5C 14.324345 51.500534 13.3463 51.095711 12.625296 50.374706C 11.90429 49.653702 11.499469 48.675655 11.5 47.656002L 11.5 15.344C 11.499469 14.324345 11.90429 13.3463 12.625296 12.625296C 13.3463 11.90429 14.324345 11.499469 15.344 11.5L 31.656 11.5C 32.675655 11.499469 33.653702 11.90429 34.374706 12.625296C 35.095711 13.3463 35.500534 14.324345 35.5 15.344L 35.5 31.5M 11.5 42.596001L 32.5 42.596001M 17.5 35.5L 17.5 35.5C 17.5 32.186295 20.186291 29.5 23.5 29.5L 23.5 29.5C 26.813709 29.5 29.5 32.186295 29.5 35.5L 29.5 35.5M 19 25C 19 27.485281 21.014719 29.5 23.5 29.5C 25.985283 29.5 28 27.485281 28 25C 28 22.514719 25.985283 20.5 23.5 20.5C 21.014719 20.5 19 22.514719 19 25"></path></g></g></g><g id="g-root-tx_enhanced_qs6fi7655pfl-stroke" data-item-order="1000000000" data-item-id="tx_enhanced_qs6fi7655pfl" data-item-class="Label Stroke Indexed ColorStrokeGray" data-item-index="3" data-renderer-id="0" transform="translate(63.001007080078125, 315)"></g><g id="g-root-add_1d1rugv65740a-stroke" data-item-order="1000000000" data-item-id="add_1d1rugv65740a" data-item-class="Icon Stroke Indexed ColorStrokeGray" data-item-index="103" data-renderer-id="0" transform="translate(303.0010070800781, 315)"><g id="add_1d1rugv65740a-stroke" fill="none" stroke-linecap="round" stroke-linejoin="round" stroke-miterlimit="4" stroke="#A3A3A3" stroke-width="2"><g><path d="M 13.428572 16.857143L 54.57143 16.857143C 54.57143 16.857143 56.285713 16.857143 56.285713 18.571428L 56.285713 46C 56.285713 46 56.285713 47.714287 54.57143 47.714287L 13.428572 47.714287C 13.428572 47.714287 11.714286 47.714287 11.714286 46L 11.714286 18.571428C 11.714286 18.571428 11.714286 16.857143 13.428572 16.857143M 30.571428 47.714287L 27.142857 56.285713M 37.428574 47.714287L 40.857143 56.285713M 23.714287 56.285713L 44.285713 56.285713M 42.57143 32.285713L 25.428572 32.285713M 34 23.714287L 34 40.857143"></path></g></g></g><g id="g-root-tx_initials_v7zxmn655on9-stroke" data-item-order="1000000000" data-item-id="tx_initials_v7zxmn655on9" data-item-class="Label Stroke Indexed ColorStrokeGray" data-item-index="103" data-renderer-id="0" transform="translate(363.0010070800781, 315)"></g><g id="g-root-sear_1d1rugv65740b-stroke" data-item-order="1000000000" data-item-id="sear_1d1rugv65740b" data-item-class="Icon Stroke Indexed ColorStrokeGray" data-item-index="4" data-renderer-id="0" transform="translate(3.001007080078125, 399)"><g id="sear_1d1rugv65740b-stroke" fill="none" stroke-linecap="round" stroke-linejoin="round" stroke-miterlimit="4" stroke="#A3A3A3" stroke-width="2"><g><path d="M 27 47.759998C 22.513447 46.091202 17.784643 45.165707 13 45.02C 11.895431 45.02 11 44.124569 11 43.02L 11 14C 11 12.895431 11.895431 12 13 12C 23.82 12.34 33 15.32 33 18.959999C 33 15.32 42.119999 12.34 53 12C 54.104568 12 55 12.895431 55 14L 55 28.98M 33 18.98L 33 24.98M 29 22.459999C 24.802313 21.038824 20.426722 20.210827 16 20M 29 28.52C 24.810371 27.059311 20.431957 26.210571 16 26M 26 33.5C 22.717789 32.704216 19.371244 32.202232 16 32M 24.66 39.18C 21.805859 38.576668 18.911514 38.182285 16 38M 42 21.02C 44.641495 20.505445 47.3139 20.164715 50 20M 29 40.02C 29.000002 47.199703 34.820297 53.02 42 53.02C 49.179703 53.02 55 47.199703 55 40.02C 55 32.840302 49.179703 27.02 42 27.02C 34.820297 27.02 29.000002 32.840302 29.000002 40.02M 50.700001 49.68L 57 55.98M 37 38L 37 35C 37 34.447716 37.447716 34 38 34L 46 34C 46.552284 34 47 34.447716 47 35L 47 38M 42 34.02L 42 46.02M 39 46.02L 45 46.02"></path></g></g></g><g id="g-root-tx_learning_qs6fi7655pfk-stroke" data-item-order="1000000000" data-item-id="tx_learning_qs6fi7655pfk" data-item-class="Label Stroke Indexed ColorStrokeGray" data-item-index="4" data-renderer-id="0" transform="translate(63.001007080078125, 399)"></g><g id="g-root-left_zntfr365720x-stroke" data-item-order="1000000000" data-item-id="left_zntfr365720x" data-item-class="Icon Stroke Indexed ColorStrokeGray" data-item-index="104" data-renderer-id="0" transform="translate(303.0010070800781, 399)"><g id="left_zntfr365720x-stroke" fill="none" stroke-linecap="round" stroke-linejoin="round" stroke-miterlimit="4" stroke="#A3A3A3" stroke-width="2"><g><path d="M 38.422859 11.714286L 17.371429 32.799999C 17.039963 33.111084 16.851936 33.545418 16.851936 34C 16.851936 34.454578 17.039963 34.888912 17.371428 35.199997L 38.422859 56.285713M 51.142857 11.714286L 51.142857 56.285713"></path></g></g></g><g id="g-root-tx_basicfun_zntfr3655nv0-stroke" data-item-order="1000000000" data-item-id="tx_basicfun_zntfr3655nv0" data-item-class="Label Stroke Indexed ColorStrokeGray" data-item-index="104" data-renderer-id="0" transform="translate(363.0010070800781, 399)"></g></g></g></svg>