<?xml version="1.0" encoding="utf-8" standalone="yes"?>
<!DOCTYPE svg PUBLIC "-//W3C//DTD SVG 1.1//EN" "http://www.w3.org/Graphics/SVG/1.1/DTD/svg11.dtd">
<svg width="660" height="410" viewBox="0 0 660 410" style="fill:none;stroke:none;fill-rule:evenodd;clip-rule:evenodd;stroke-linecap:round;stroke-linejoin:round;stroke-miterlimit:1.5;" version="1.1" xmlns="http://www.w3.org/2000/svg" xmlns:xlink="http://www.w3.org/1999/xlink"><style id="fontImports">@import url("https://fonts.googleapis.com/css2?family=Roboto:wght@400;700&amp;display=block");</style><g id="items" style="isolation: isolate"><g id="blend" style="mix-blend-mode:normal"><g id="g-root--1.cu_sy_18n6o74d33z7o-fill" data-item-order="999903236" data-item-id="-1.cu_sy_18n6o74d33z7o" data-item-class="Part Fill Stroke ColorFillBlack ColorStrokeBlack" data-item-index="-1" data-renderer-id="0" transform="translate(290, 3)"></g><g id="g-root-4.line_sy_147zn5sd33wu8-fill" data-item-order="999903239" data-item-id="4.line_sy_147zn5sd33wu8" data-item-class="Curve Stroke Part Indexed ColorFillBlack" data-item-index="4" data-renderer-id="0" transform="translate(206, 230)"></g><g id="g-root-3.line_sy_18n6o74d33z7r-fill" data-item-order="999903241" data-item-id="3.line_sy_18n6o74d33z7r" data-item-class="Curve Stroke Part Indexed ColorFillBlack" data-item-index="3" data-renderer-id="0" transform="translate(206.109375, 207)"></g><g id="g-root-2.line_sy_18n6o74d33z7q-fill" data-item-order="999903243" data-item-id="2.line_sy_18n6o74d33z7q" data-item-class="Curve Stroke Part Indexed ColorFillBlack" data-item-index="2" data-renderer-id="0" transform="translate(206, 153)"></g><g id="g-root-1.line_sy_18n6o74d33z7p-fill" data-item-order="999903245" data-item-id="1.line_sy_18n6o74d33z7p" data-item-class="Curve Stroke Part Indexed Indexed_1 ColorFillBlack" data-item-index="1" data-renderer-id="0" transform="translate(206, 69)"></g><g id="g-root-tx_homeenvi_1lyn6kgd33xmq-fill" data-item-order="1000000000" data-item-id="tx_homeenvi_1lyn6kgd33xmq" data-item-class="Label Stroke Indexed Indexed_1 ColorStrokeGray" data-item-index="1" data-renderer-id="0" transform="translate(2, 45)"><g id="tx_homeenvi_1lyn6kgd33xmq-fill" stroke="none" fill="#A3A3A3"><g><text style="font: 20px Roboto, sans-serif; white-space: pre;" font-weight="20px" font-size="Roboto," font-family="sans-serif"><tspan x="86.21" y="33.5" dominant-baseline="ideographic">Home </tspan><tspan x="18.03" y="57.5" dominant-baseline="ideographic">Environments</tspan></text></g></g></g><g id="g-root-home_1448sn4d36qdd-fill" data-item-order="1000000000" data-item-id="home_1448sn4d36qdd" data-item-class="Icon Stroke Indexed Indexed_1" data-item-index="1" data-renderer-id="0" transform="translate(146, 45)"></g><g id="g-root-tx_serversa_1lyn6kgd33xmp-fill" data-item-order="1000000000" data-item-id="tx_serversa_1lyn6kgd33xmp" data-item-class="Label Stroke Indexed ColorStrokeGray" data-item-index="2" data-renderer-id="0" transform="translate(2, 129)"><g id="tx_serversa_1lyn6kgd33xmp-fill" stroke="none" fill="#A3A3A3"><g><text style="font: 20px Roboto, sans-serif; white-space: pre;" font-weight="20px" font-size="Roboto," font-family="sans-serif"><tspan x="35.21" y="33.5" dominant-baseline="ideographic">Servers and </tspan><tspan x="19.48" y="57.5" dominant-baseline="ideographic">Infrastructure</tspan></text></g></g></g><g id="g-root-4_v8lse8d36r62-fill" data-item-order="1000000000" data-item-id="4_v8lse8d36r62" data-item-class="Icon Stroke Indexed" data-item-index="2" data-renderer-id="0" transform="translate(146, 129)"></g><g id="g-root-user_18jftogd36sqv-fill" data-item-order="1000000000" data-item-id="user_18jftogd36sqv" data-item-class="Icon Stroke ColorStrokeGray" data-item-index="none" data-renderer-id="0" transform="translate(470, 171)"></g><g id="g-root-tx_versatil_1utnpq8d33z7y-fill" data-item-order="1000000000" data-item-id="tx_versatil_1utnpq8d33z7y" data-item-class="Label Stroke ColorStrokeGray" data-item-index="none" data-renderer-id="0" transform="translate(530, 171)"><g id="tx_versatil_1utnpq8d33z7y-fill" stroke="none" fill="#A3A3A3"><g><text style="font: 20px Roboto, sans-serif; white-space: pre;" font-weight="20px" font-size="Roboto," font-family="sans-serif"><tspan x="12" y="33.5" dominant-baseline="ideographic">Versatile </tspan><tspan x="12" y="57.5" dominant-baseline="ideographic">Monitoring</tspan></text></g></g></g><g id="g-root-tx_homenetw_1lyn6kgd33xmo-fill" data-item-order="1000000000" data-item-id="tx_homenetw_1lyn6kgd33xmo" data-item-class="Label Stroke Indexed ColorStrokeGray" data-item-index="3" data-renderer-id="0" transform="translate(26, 213)"><g id="tx_homenetw_1lyn6kgd33xmo-fill" stroke="none" fill="#A3A3A3"><g><text style="font: 20px Roboto, sans-serif; white-space: pre;" font-weight="20px" font-size="Roboto," font-family="sans-serif"><tspan x="62.21" y="33.5" dominant-baseline="ideographic">Home </tspan><tspan x="14.16" y="57.5" dominant-baseline="ideographic">Networking</tspan></text></g></g></g><g id="g-root-tech_1448sn4d36qdc-fill" data-item-order="1000000000" data-item-id="tech_1448sn4d36qdc" data-item-class="Icon Stroke Indexed" data-item-index="3" data-renderer-id="0" transform="translate(146, 213)"></g><g id="g-root-tx_addition_1qegoowd33wuf-fill" data-item-order="1000000000" data-item-id="tx_addition_1qegoowd33wuf" data-item-class="Label Stroke Indexed ColorStrokeGray" data-item-index="4" data-renderer-id="0" transform="translate(38, 297)"><g id="tx_addition_1qegoowd33wuf-fill" stroke="none" fill="#A3A3A3"><g><text style="font: 20px Roboto, sans-serif; white-space: pre;" font-weight="20px" font-size="Roboto," font-family="sans-serif"><tspan x="13.98" y="33.5" dominant-baseline="ideographic">Additional </tspan><tspan x="15.81" y="57.5" dominant-baseline="ideographic">Scenarios</tspan></text></g></g></g><g id="g-root-mode_qssa9sd36ryb-fill" data-item-order="1000000000" data-item-id="mode_qssa9sd36ryb" data-item-class="Icon Stroke Indexed" data-item-index="4" data-renderer-id="0" transform="translate(146, 297)"></g><g id="g-root--1.cu_sy_18n6o74d33z7o-stroke" data-item-order="999903236" data-item-id="-1.cu_sy_18n6o74d33z7o" data-item-class="Part Fill Stroke ColorFillBlack ColorStrokeBlack" data-item-index="-1" data-renderer-id="0" transform="translate(290, 3)"><g id="-1.cu_sy_18n6o74d33z7o-stroke" fill="none" stroke-linecap="round" stroke-linejoin="round" stroke-miterlimit="4" stroke="#666666" stroke-width="2"><g><path d="M 65.766602 394C 80.754802 394 106.000002 308.0387 106.000002 202C 106.000002 95.9613 80.754802 10 65.766602 10C 80.775202 10.01 92.941702 96.2224 92.941702 202C 92.941702 307.7776 80.775202 393.99 65.766602 394ZM 65.765897 394C 80.774597 393.99 92.941097 307.7776 92.941097 202C 92.941097 96.2224 80.774597 10.01 65.765897 10L 51.957397 10C 66.060697 16.8878 77.199297 100.4719 77.199297 202C 77.199297 303.5282 65.382597 387.1122 51.279297 394L 65.765897 394ZM 77.2 202C 77.2 303.5282 65.3833 387.1122 51.28 394L 50.0615 394C 35.0734 394 10 308.0387 10 202C 10 95.9613 35.0734 10 50.0615 10C 50.6991 10 51.9581 10 51.9581 10C 66.0614 16.8878 77.2 100.4719 77.2 202Z"></path></g></g></g><g id="g-root-4.line_sy_147zn5sd33wu8-stroke" data-item-order="999903239" data-item-id="4.line_sy_147zn5sd33wu8" data-item-class="Curve Stroke Part Indexed ColorFillBlack" data-item-index="4" data-renderer-id="0" transform="translate(206, 230)"><g id="4.line_sy_147zn5sd33wu8-stroke" fill="none" stroke-linecap="round" stroke-linejoin="round" stroke-miterlimit="4" stroke="#1AC6FF" stroke-width="2"><g><path d="M 260.35 11.140137L 130 101.000137L 10 101.000137"></path><path d="M 259.1 19.940137L 260.8 10.840137L 251.7 9.140137" stroke-dasharray="none"></path></g></g></g><g id="g-root-3.line_sy_18n6o74d33z7r-stroke" data-item-order="999903241" data-item-id="3.line_sy_18n6o74d33z7r" data-item-class="Curve Stroke Part Indexed ColorFillBlack" data-item-index="3" data-renderer-id="0" transform="translate(206.109375, 207)"><g id="3.line_sy_18n6o74d33z7r-stroke" fill="none" stroke-linecap="round" stroke-linejoin="round" stroke-miterlimit="4" stroke="#FFE60A" stroke-width="2"><g><path d="M 249.95061 10.47998L 129.89061 39.99998L 10.00061 39.99998"></path><path d="M 245.70061 18.17998L 250.40061 10.37998L 242.60061 5.57998" stroke-dasharray="none"></path></g></g></g><g id="g-root-2.line_sy_18n6o74d33z7q-stroke" data-item-order="999903243" data-item-id="2.line_sy_18n6o74d33z7q" data-item-class="Curve Stroke Part Indexed ColorFillBlack" data-item-index="2" data-renderer-id="0" transform="translate(206, 153)"><g id="2.line_sy_18n6o74d33z7q-stroke" fill="none" stroke-linecap="round" stroke-linejoin="round" stroke-miterlimit="4" stroke="#FD6A65" stroke-width="2"><g><path d="M 250.06 39.52L 130 10L 10 10"></path><path d="M 242.7 44.4L 250.5 39.6L 245.8 31.8" stroke-dasharray="none"></path></g></g></g><g id="g-root-1.line_sy_18n6o74d33z7p-stroke" data-item-order="999903245" data-item-id="1.line_sy_18n6o74d33z7p" data-item-class="Curve Stroke Part Indexed Indexed_1 ColorFillBlack" data-item-index="1" data-renderer-id="0" transform="translate(206, 69)"><g id="1.line_sy_18n6o74d33z7p-stroke" fill="none" stroke-linecap="round" stroke-linejoin="round" stroke-miterlimit="4" stroke="#44E095" stroke-width="2"><g><path d="M 260.35 99.86L 130 10L 10 10"></path><path d="M 251.7 101.8L 260.8 100.1L 259.1 91.1" stroke-dasharray="none"></path></g></g></g><g id="g-root-tx_homeenvi_1lyn6kgd33xmq-stroke" data-item-order="1000000000" data-item-id="tx_homeenvi_1lyn6kgd33xmq" data-item-class="Label Stroke Indexed Indexed_1 ColorStrokeGray" data-item-index="1" data-renderer-id="0" transform="translate(2, 45)"></g><g id="g-root-home_1448sn4d36qdd-stroke" data-item-order="1000000000" data-item-id="home_1448sn4d36qdd" data-item-class="Icon Stroke Indexed Indexed_1" data-item-index="1" data-renderer-id="0" transform="translate(146, 45)"><g id="home_1448sn4d36qdd-stroke" fill="none" stroke-linecap="round" stroke-linejoin="round" stroke-miterlimit="4" stroke="#44E095" stroke-width="2"><g><path d="M 17 34.428001L 17 55C 17 56.104568 17.895432 57 19 57L 45 57C 46.104568 57 47 56.104568 47 55L 47 34.428001M 11 40L 32 20.5L 53 40M 29 44L 35 44C 36.104568 44 37 44.895432 37 46L 37 57L 37 57L 27 57L 27 57L 27 46C 27 44.895432 27.89543 44 29 44ZM 45.400002 25.571999C 45.354992 23.955143 44.054859 22.655012 42.438 22.610001M 51.200001 25.686001C 51.064968 20.838743 47.167255 16.941029 42.32 16.806M 51.200001 25.686001C 51.064968 20.838743 47.167255 16.941029 42.32 16.806M 57 25.799999C 56.772968 17.722094 50.277905 11.227032 42.200001 11M 57 25.799999C 56.772968 17.722094 50.277905 11.227032 42.200001 11"></path></g></g></g><g id="g-root-tx_serversa_1lyn6kgd33xmp-stroke" data-item-order="1000000000" data-item-id="tx_serversa_1lyn6kgd33xmp" data-item-class="Label Stroke Indexed ColorStrokeGray" data-item-index="2" data-renderer-id="0" transform="translate(2, 129)"></g><g id="g-root-4_v8lse8d36r62-stroke" data-item-order="1000000000" data-item-id="4_v8lse8d36r62" data-item-class="Icon Stroke Indexed" data-item-index="2" data-renderer-id="0" transform="translate(146, 129)"><g id="4_v8lse8d36r62-stroke" fill="none" stroke-linecap="round" stroke-linejoin="round" stroke-miterlimit="4" stroke="#FD6A65" stroke-width="2"><g><path d="M 21.001999 57L 47.001999 57M 35.001999 47L 35.001999 57M 57 31C 57 33.209137 55.209141 35 53 35L 15 35C 12.790861 35 11 33.209137 11 31L 11 27C 11 24.790861 12.790861 23 15 23L 53 23C 55.209141 23 57 24.790861 57 27ZM 19.5 28.5C 19.223858 28.5 19 28.723858 19 29C 19 29.276142 19.223858 29.5 19.5 29.5C 19.776142 29.5 20 29.276142 20 29C 20 28.723858 19.776142 28.5 19.5 28.5L 19.5 28.5M 26.5 28.5C 26.223858 28.5 26 28.723858 26 29C 26 29.276142 26.223858 29.5 26.5 29.5C 26.776142 29.5 27 29.276142 27 29C 27 28.723858 26.776142 28.5 26.5 28.5L 26.5 28.5M 57 19C 57 21.209139 55.209141 23 53 23L 15 23C 12.790861 23 11 21.209139 11 19L 11 15C 11 12.790861 12.790861 11 15 11L 53 11C 55.209141 11 57 12.790861 57 15ZM 19.5 16.5C 19.223858 16.5 19 16.723858 19 17C 19 17.276142 19.223858 17.5 19.5 17.5C 19.776142 17.5 20 17.276142 20 17C 20 16.723858 19.776142 16.5 19.5 16.5L 19.5 16.5M 26.5 16.5C 26.223858 16.5 26 16.723858 26 17C 26 17.276142 26.223858 17.5 26.5 17.5C 26.776142 17.5 27 17.276142 27 17C 27 16.723858 26.776142 16.5 26.5 16.5L 26.5 16.5M 57 43C 57 45.209141 55.209141 47 53 47L 15 47C 12.790861 47 11 45.209141 11 43L 11 39C 11 36.790863 12.790861 35 15 35L 53 35C 55.209141 35 57 36.790863 57 39ZM 19.5 40.5C 19.223858 40.5 19 40.723858 19 41C 19 41.276142 19.223858 41.5 19.5 41.5C 19.776142 41.5 20 41.276142 20 41C 20 40.723858 19.776142 40.5 19.5 40.5L 19.5 40.5M 26.5 40.5C 26.223858 40.5 26 40.723858 26 41C 26 41.276142 26.223858 41.5 26.5 41.5C 26.776142 41.5 27 41.276142 27 41C 27 40.723858 26.776142 40.5 26.5 40.5L 26.5 40.5M 16.5 56C 16.223858 56 16 56.223858 16 56.5C 16 56.776142 16.223858 57 16.5 57C 16.776142 57 17 56.776142 17 56.5C 17 56.223858 16.776142 56 16.5 56L 16.5 56M 11.5 56C 11.223858 56 11 56.223858 11 56.5C 11 56.776142 11.223858 57 11.5 57C 11.776142 57 12 56.776142 12 56.5C 12 56.223858 11.776142 56 11.5 56L 11.5 56M 56.5 56C 56.223858 56 56 56.223858 56 56.5C 56 56.776142 56.223858 57 56.5 57C 56.776142 57 57 56.776142 57 56.5C 57 56.223858 56.776142 56 56.5 56L 56.5 56M 51.5 56C 51.223858 56 51 56.223858 51 56.5C 51 56.776142 51.223858 57 51.5 57C 51.776142 57 52 56.776142 52 56.5C 52 56.223858 51.776142 56 51.5 56L 51.5 56"></path></g></g></g><g id="g-root-user_18jftogd36sqv-stroke" data-item-order="1000000000" data-item-id="user_18jftogd36sqv" data-item-class="Icon Stroke ColorStrokeGray" data-item-index="none" data-renderer-id="0" transform="translate(470, 171)"><g id="user_18jftogd36sqv-stroke" fill="none" stroke-linecap="round" stroke-linejoin="round" stroke-miterlimit="4" stroke="#A3A3A3" stroke-width="2"><g><path d="M 50 36L 50 49.824001C 50.047073 51.528873 48.704788 52.949905 47 53.000004L 21 53C 19.295216 52.949905 17.95293 51.528873 18 49.824001L 18 36M 27 57L 41 57M 34 53L 34 57M 18 47L 50 47M 38 37L 46 29M 40 29L 46 29L 46 35M 30 37L 22 29M 28 29L 22 29L 22 35M 45 15C 45 17.209139 46.790859 19 49 19C 51.209141 19 53 17.209139 53 15C 53 12.790861 51.209141 11 49 11C 46.790859 11 45 12.790861 45 15ZM 49 19C 44 19 42 22 42 25L 56 25C 56 22 54 19 49 19ZM 15 15C 15 17.209139 16.790861 19 19 19C 21.209139 19 23 17.209139 23 15C 23 12.790861 21.209139 11 19 11C 16.790861 11 15 12.790861 15 15ZM 19 19C 14 19 12 22 12 25L 26 25C 26 22 24 19 19 19Z"></path></g></g></g><g id="g-root-tx_versatil_1utnpq8d33z7y-stroke" data-item-order="1000000000" data-item-id="tx_versatil_1utnpq8d33z7y" data-item-class="Label Stroke ColorStrokeGray" data-item-index="none" data-renderer-id="0" transform="translate(530, 171)"></g><g id="g-root-tx_homenetw_1lyn6kgd33xmo-stroke" data-item-order="1000000000" data-item-id="tx_homenetw_1lyn6kgd33xmo" data-item-class="Label Stroke Indexed ColorStrokeGray" data-item-index="3" data-renderer-id="0" transform="translate(26, 213)"></g><g id="g-root-tech_1448sn4d36qdc-stroke" data-item-order="1000000000" data-item-id="tech_1448sn4d36qdc" data-item-class="Icon Stroke Indexed" data-item-index="3" data-renderer-id="0" transform="translate(146, 213)"><g id="tech_1448sn4d36qdc-stroke" fill="none" stroke-linecap="round" stroke-linejoin="round" stroke-miterlimit="4" stroke="#FFE60A" stroke-width="2"><g><path d="M 21 49L 47 49C 47 49 49 49 49 51L 49 55C 49 55 49 57 47 57L 21 57C 21 57 19 57 19 55L 19 51C 19 51 19 49 21 49M 23 49L 23 43M 45 49L 45 43M 23 53L 25 53M 29 53L 31 53M 34 22.5C 34.276142 22.5 34.5 22.723858 34.5 23C 34.5 23.276142 34.276142 23.5 34 23.5C 33.723858 23.5 33.5 23.276142 33.5 23C 33.5 22.723858 33.723858 22.5 34 22.5M 31 11L 37 11C 37 11 39 11 39 13L 39 25C 39 25 39 27 37 27L 31 27C 31 27 29 27 29 25L 29 13C 29 13 29 11 31 11M 47 17L 53 17C 54.104568 17 55 17.895432 55 19L 55 25L 55 25L 45 25L 45 25L 45 19C 45 17.895432 45.895432 17 47 17ZM 55.382 31C 55.942566 30.999235 56.462902 30.708723 56.757694 30.231926C 57.052486 29.755129 57.079834 29.159817 56.829998 28.657999L 55 25L 45 25L 43.169998 28.658001C 42.920166 29.159817 42.947514 29.755129 43.242306 30.231926C 43.537098 30.708723 44.05743 30.999235 44.618 31ZM 13 17L 23 17C 23 17 25 17 25 19L 25 25C 25 25 25 27 23 27L 13 27C 13 27 11 27 11 25L 11 19C 11 19 11 17 13 17M 13 31L 23 31M 15 31L 16 27M 21 31L 20 27M 41.209999 37.183998C 36.843815 34.273853 31.156187 34.273853 26.790001 37.184002M 39 41.512001C 35.977043 39.496872 32.038956 39.496872 29.016001 41.512001"></path></g></g></g><g id="g-root-tx_addition_1qegoowd33wuf-stroke" data-item-order="1000000000" data-item-id="tx_addition_1qegoowd33wuf" data-item-class="Label Stroke Indexed ColorStrokeGray" data-item-index="4" data-renderer-id="0" transform="translate(38, 297)"></g><g id="g-root-mode_qssa9sd36ryb-stroke" data-item-order="1000000000" data-item-id="mode_qssa9sd36ryb" data-item-class="Icon Stroke Indexed" data-item-index="4" data-renderer-id="0" transform="translate(146, 297)"><g id="mode_qssa9sd36ryb-stroke" fill="none" stroke-linecap="round" stroke-linejoin="round" stroke-miterlimit="4" stroke="#1AC6FF" stroke-width="2"><g><path d="M 32 56C 32 56.552284 31.552284 57 31 57L 15 57C 14.447716 57 14 56.552284 14 56L 14 23.65C 14.000998 23.253292 14.236408 22.894684 14.6 22.736L 30.6 15.624001C 30.908749 15.48925 31.264593 15.519007 31.546673 15.703165C 31.828753 15.887323 31.999153 16.201128 32 16.538ZM 26 57L 26 52C 26 51.447716 25.552284 51 25 51L 21 51C 20.447716 51 20 51.447716 20 52L 20 57M 20 11L 20 20.334M 32 29L 24 29M 32 33L 20 33M 32 25L 26 25M 54 56C 54 56.552284 53.552284 57 53 57L 39 57C 38.447716 57 38 56.552284 38 56L 38 26.799999C 38 26.436474 38.197273 26.101582 38.515228 25.925354C 38.833183 25.74913 39.221733 25.759331 39.529999 25.952L 54 35ZM 52 33.75L 52 28C 52 27.447716 51.552284 27 51 27L 41.200001 27M 48 57L 48 51L 44 51L 44 57M 38 37L 44 37M 38 41L 48 41"></path></g></g></g></g></g></svg>